<svg width="48" height="48" viewBox="0 0 48 48" fill="none" xmlns="http://www.w3.org/2000/svg">
<path d="M21.8302 16.8624C21.2521 17.0194 20.702 17.2453 20.1897 17.5311C20.0574 17.4208 19.9517 17.275 19.8886 17.1009L16.913 8.88943C16.7234 8.36607 16.992 7.78747 17.5131 7.59705C17.6264 7.55555 17.7423 7.5361 17.8561 7.5361C18.2662 7.5361 18.6513 7.79031 18.7996 8.19961L21.7752 16.4111C21.8293 16.5605 21.8461 16.7144 21.8302 16.8624Z" fill="#34C347"/>
<path d="M16.6014 2.14634C16.4118 1.62305 15.8357 1.35325 15.3147 1.54371C14.7937 1.73417 14.5251 2.31277 14.7147 2.83605L15.9124 6.14112C16.102 6.66441 16.6781 6.93421 17.199 6.74375C17.72 6.55329 17.9886 5.97469 17.799 5.45141L16.6014 2.14634Z" fill="#34C347"/>
<path d="M16.6387 22.1069C16.4905 22.6704 16.4069 23.2601 16.3965 23.8679C16.2348 23.9281 16.0556 23.9473 15.8736 23.9151L7.3056 22.3977C6.75976 22.3009 6.39524 21.778 6.49133 21.2295C6.57726 20.7406 7.00081 20.3963 7.47889 20.3963C7.53674 20.3963 7.59529 20.4012 7.65431 20.4117L16.2223 21.9291C16.3781 21.9566 16.519 22.019 16.6387 22.1069Z" fill="#34C347"/>
<path d="M1.33724 19.293C0.791252 19.1963 0.270591 19.5625 0.174318 20.1109C0.0780449 20.6593 0.442615 21.1823 0.988608 21.279L4.43711 21.8897C4.9831 21.9864 5.50376 21.6202 5.60004 21.0718C5.69631 20.5234 5.33174 20.0005 4.78575 19.9038L1.33724 19.293Z" fill="#34C347"/>
<path d="M19.9642 30.3373C19.9352 30.5075 19.8622 30.6723 19.7437 30.8144L14.1514 37.5085C13.7952 37.9351 13.162 37.9908 12.7372 37.6327C12.5007 37.4333 12.3786 37.1475 12.3786 36.8599C12.3786 36.6311 12.4556 36.4013 12.6135 36.2123L18.2058 29.5182C18.308 29.3958 18.4329 29.3041 18.5691 29.2438C18.9875 29.6619 19.4559 30.0295 19.9642 30.3373Z" fill="#34C347"/>
<path d="M8.48588 41.1462C8.1295 41.5728 8.1849 42.2088 8.60961 42.5667C9.03432 42.9247 9.66751 42.869 10.0239 42.4424L12.2747 39.7481C12.6311 39.3215 12.5757 38.6856 12.151 38.3276C11.7263 37.9697 11.0931 38.0253 10.7367 38.4519L8.48588 41.1462Z" fill="#34C347"/>
<path d="M30.0104 40.4041C29.897 40.4456 29.7811 40.4651 29.6673 40.4651C29.2572 40.4651 28.8722 40.2109 28.7239 39.8016L25.7482 31.5901C25.6942 31.4407 25.6774 31.2868 25.6932 31.1388C26.2714 30.9818 26.8215 30.7559 27.3338 30.4701C27.466 30.5804 27.5718 30.7262 27.6348 30.9003L30.6105 39.1118C30.8001 39.6351 30.5314 40.2137 30.0104 40.4041Z" fill="#34C347"/>
<path d="M30.9143 45.8542C31.1039 46.3774 31.68 46.6473 32.2009 46.4568C32.7219 46.2663 32.9905 45.6877 32.8009 45.1644L31.6033 41.8594C31.4136 41.3361 30.8376 41.0663 30.3166 41.2568C29.7956 41.4472 29.527 42.0258 29.7166 42.5491L30.9143 45.8542Z" fill="#34C347"/>
<path d="M41.0186 26.7711C40.9329 27.26 40.5091 27.6043 40.0313 27.6043C39.9734 27.6043 39.9149 27.5994 39.8559 27.5889L31.2879 26.0715C31.1321 26.044 30.9911 25.9816 30.8714 25.8937C31.0197 25.3302 31.1033 24.7405 31.1136 24.1327C31.2754 24.0725 31.4546 24.0533 31.6366 24.0855L40.2043 25.6029C40.7504 25.6997 41.1149 26.2226 41.0186 26.7711Z" fill="#34C347"/>
<path d="M46.1784 28.7073C46.7244 28.804 47.2451 28.4379 47.3413 27.8895C47.4376 27.3411 47.073 26.8181 46.527 26.7214L43.0785 26.1106C42.5325 26.0139 42.0119 26.3801 41.9156 26.9285C41.8193 27.4769 42.1839 27.9999 42.7299 28.0966L46.1784 28.7073Z" fill="#34C347"/>
<path d="M35.1217 11.1397C35.1217 11.3685 35.0447 11.5983 34.8868 11.7873L29.2945 18.4814C29.1922 18.6038 29.0674 18.6955 28.9311 18.7558C28.5128 18.3377 28.0444 17.9701 27.5361 17.6623C27.5651 17.4921 27.6381 17.3273 27.7566 17.1852L33.3489 10.4912C33.7051 10.0645 34.3383 10.0088 34.763 10.3669C34.9996 10.5663 35.1217 10.8521 35.1217 11.1397Z" fill="#34C347"/>
<path d="M39.0153 6.85354C39.3717 6.42696 39.3163 5.79097 38.8916 5.43302C38.4669 5.07507 37.8337 5.13072 37.4773 5.5573L35.2265 8.25162C34.8701 8.6782 34.9255 9.31419 35.3502 9.67214C35.7749 10.0301 36.4081 9.97444 36.7645 9.54786L39.0153 6.85354Z" fill="#34C347"/>
<path d="M19.5198 17.9554C19.0359 18.2983 18.5948 18.6988 18.2069 19.1465C18.0447 19.0882 17.8951 18.9874 17.7763 18.8451L16.1574 16.9075C15.8009 16.4809 15.8564 15.8449 16.2811 15.4868C16.4693 15.3284 16.6981 15.2511 16.9259 15.2511C17.2123 15.2511 17.4968 15.3735 17.6953 15.6111L19.3142 17.5489C19.4162 17.6711 19.4844 17.8105 19.5198 17.9554Z" fill="#77D4FD"/>
<path d="M9.59613 5.92061C9.23976 5.49403 8.60657 5.43839 8.18186 5.79634C7.75716 6.15428 7.70176 6.79027 8.05813 7.21686L14.3257 14.7192C14.682 15.1458 15.3152 15.2015 15.7399 14.8435C16.1646 14.4856 16.22 13.8496 15.8637 13.423L9.59613 5.92061Z" fill="#77D4FD"/>
<path d="M16.7949 26.4051C16.6639 26.5166 16.5026 26.5955 16.3213 26.6278L13.8412 27.0669C13.2951 27.1637 12.7745 26.7976 12.6782 26.2491C12.6678 26.1898 12.6629 26.1307 12.6629 26.0726C12.6629 25.5924 13.0054 25.1673 13.4925 25.0809L15.9726 24.6418C16.1289 24.614 16.2833 24.6242 16.4261 24.6662C16.4795 25.2697 16.6053 25.8523 16.7949 26.4051Z" fill="#77D4FD"/>
<path d="M10.6914 25.5765L1.08896 27.2772C0.542972 27.3739 0.178402 27.8968 0.274675 28.4452C0.370948 28.9936 0.891608 29.3598 1.4376 29.2631L11.04 27.5625C11.586 27.4658 11.9506 26.9428 11.8543 26.3944C11.758 25.846 11.2374 25.4798 10.6914 25.5765Z" fill="#77D4FD"/>
<path d="M22.3226 31.7827L21.4613 34.1598C21.2718 34.6831 20.6957 34.953 20.1747 34.7626C19.7669 34.6134 19.5138 34.2266 19.5138 33.815C19.5138 33.7004 19.5334 33.584 19.5747 33.4702L20.436 31.0931C20.4901 30.9437 20.5755 30.815 20.6825 30.7118C21.213 30.9589 21.7777 31.1444 22.3675 31.2589C22.3979 31.4287 22.3856 31.6089 22.3226 31.7827Z" fill="#77D4FD"/>
<path d="M18.5911 36.1536L15.2562 45.3566C15.0666 45.8799 15.3352 46.4585 15.8562 46.6489C16.3772 46.8394 16.9532 46.5696 17.1428 46.0463L20.4777 36.8433C20.6674 36.32 20.3987 35.7414 19.8778 35.5509C19.3568 35.3605 18.7807 35.6303 18.5911 36.1536Z" fill="#77D4FD"/>
<path d="M31.2369 32.5133C31.0487 32.6717 30.82 32.749 30.5921 32.749C30.3058 32.749 30.0213 32.6266 29.8227 32.389L28.2038 30.4511C28.1019 30.329 28.0336 30.1896 27.9982 30.0447C28.4822 29.7018 28.9232 29.3013 29.3111 28.8536C29.4733 28.9119 29.623 29.0127 29.7417 29.155L31.3606 31.0926C31.7171 31.5192 31.6616 32.1552 31.2369 32.5133Z" fill="#77D4FD"/>
<path d="M33.1959 33.2805C32.8395 32.8539 32.2063 32.7982 31.7816 33.1562C31.3569 33.5141 31.3015 34.1501 31.6579 34.5767L37.9254 42.0791C38.2818 42.5057 38.915 42.5613 39.3397 42.2034C39.7644 41.8454 39.8198 41.2094 39.4634 40.7828L33.1959 33.2805Z" fill="#77D4FD"/>
<path d="M34.8556 21.9264C34.8556 22.4066 34.5131 22.8318 34.026 22.9181L31.5459 23.3573C31.3896 23.3851 31.2352 23.3749 31.0923 23.3329C31.039 22.7294 30.9132 22.1467 30.7236 21.594C30.8546 21.4825 31.0159 21.4036 31.1972 21.3713L33.6773 20.9321C34.2234 20.8354 34.744 21.2015 34.8403 21.75C34.8507 21.8093 34.8556 21.8683 34.8556 21.9264Z" fill="#77D4FD"/>
<path d="M46.0886 18.7358L36.4862 20.4364C35.9402 20.5331 35.5757 21.0561 35.6719 21.6045C35.7682 22.1529 36.2889 22.5191 36.8349 22.4224L46.4373 20.7217C46.9833 20.625 47.3478 20.102 47.2516 19.5536C47.1553 19.0052 46.6346 18.6391 46.0886 18.7358Z" fill="#77D4FD"/>
<path d="M28.0289 14.185C28.0289 14.2996 28.0093 14.416 27.968 14.5298L27.1068 16.9069C27.0527 17.0563 26.9672 17.185 26.8603 17.2882C26.3298 17.0411 25.7651 16.8556 25.1753 16.7411C25.1446 16.5713 25.1571 16.3911 25.2202 16.2173L26.0814 13.8402C26.271 13.3169 26.8471 13.047 27.3681 13.2374C27.7759 13.3866 28.0289 13.7731 28.0289 14.185Z" fill="#77D4FD"/>
<path d="M30.3808 1.95361L27.0459 11.1566C26.8563 11.6799 27.1249 12.2585 27.6459 12.449C28.1668 12.6394 28.7429 12.3696 28.9325 11.8464L32.2674 2.64332C32.457 2.12004 32.1884 1.54144 31.6674 1.35098C31.1464 1.16052 30.5704 1.43033 30.3808 1.95361Z" fill="#77D4FD"/>
<path d="M24.4813 9.45221V16.1878C24.4813 16.3474 24.4445 16.4982 24.3788 16.6322C24.1746 16.6149 23.9678 16.6061 23.7591 16.6061C23.3681 16.6061 22.9845 16.6367 22.61 16.6957C22.5234 16.5466 22.4736 16.373 22.4736 16.1878V9.45221C22.4736 8.89542 22.9231 8.44391 23.4774 8.44391C23.7548 8.44391 24.0056 8.55679 24.1874 8.73938C24.3689 8.92174 24.4813 9.17381 24.4813 9.45221Z" fill="#0974FB"/>
<path d="M24.4813 1.0084C24.4813 0.451529 24.0318 9.91821e-05 23.4774 9.91821e-05C22.923 9.91821e-05 22.4736 0.451529 22.4736 1.0084V6.54454C22.4736 7.10141 22.923 7.55284 23.4774 7.55284C24.0318 7.55284 24.4813 7.10141 24.4813 6.54454V1.0084Z" fill="#0974FB"/>
<path d="M17.7002 19.777C17.364 20.2615 17.084 20.7882 16.8699 21.3476C16.6982 21.3483 16.524 21.3049 16.3646 21.2124L10.5573 17.8446C10.0773 17.5662 9.91275 16.9494 10.1899 16.4674C10.4671 15.985 11.0812 15.8197 11.5611 16.0981L17.3685 19.4659C17.5059 19.5456 17.6173 19.653 17.7002 19.777Z" fill="#0974FB"/>
<path d="M4.28428 11.8766C3.80414 11.5982 3.19019 11.7634 2.91299 12.2457C2.63578 12.7279 2.80029 13.3446 3.28042 13.623L8.05376 16.3911C8.5339 16.6695 9.14785 16.5043 9.42506 16.022C9.70227 15.5398 9.53776 14.9231 9.05762 14.6447L4.28428 11.8766Z" fill="#0974FB"/>
<path d="M18.0267 28.6513C17.9415 28.8019 17.8166 28.9321 17.6565 29.0251L11.8492 32.3926C11.369 32.6712 10.7551 32.506 10.478 32.0236C10.3866 31.8648 10.3432 31.6914 10.3432 31.5202C10.3432 31.1718 10.5233 30.833 10.8453 30.6464L16.6527 27.2786C16.7899 27.1989 16.9379 27.1557 17.0857 27.1458C17.339 27.6867 17.6558 28.1918 18.0267 28.6513Z" fill="#0974FB"/>
<path d="M8.34163 32.0997L3.56829 34.8677C3.08815 35.1462 2.92364 35.7628 3.20085 36.2451C3.47806 36.7274 4.09201 36.8926 4.57215 36.6142L9.34548 33.8461C9.82562 33.5677 9.99013 32.951 9.71292 32.4687C9.43571 31.9865 8.82176 31.8212 8.34163 32.0997Z" fill="#0974FB"/>
<path d="M25.0438 31.8124V38.548C25.0438 39.1047 24.5943 39.5563 24.0399 39.5563C23.7625 39.5563 23.5118 39.4434 23.33 39.2608C23.1484 39.0784 23.0361 38.8264 23.0361 38.548V31.8124C23.0361 31.6528 23.0729 31.502 23.1385 31.368C23.3428 31.3853 23.5496 31.3941 23.7583 31.3941C24.1492 31.3941 24.5329 31.3635 24.9073 31.3044C24.994 31.4536 25.0438 31.6272 25.0438 31.8124Z" fill="#0974FB"/>
<path d="M25.0438 41.4556C25.0438 40.8988 24.5943 40.4473 24.0399 40.4473C23.4855 40.4473 23.0361 40.8988 23.0361 41.4556V46.9918C23.0361 47.5486 23.4855 48.0001 24.0399 48.0001C24.5943 48.0001 25.0438 47.5486 25.0438 46.9918V41.4556Z" fill="#0974FB"/>
<path d="M37.2964 31.5338C37.1103 31.8573 36.7729 32.0382 36.4259 32.0382C36.2557 32.0382 36.0831 31.9946 35.9251 31.903L30.1175 28.5353C29.9801 28.4556 29.8685 28.3482 29.7861 28.2241C30.1223 27.7397 30.4023 27.213 30.6164 26.6536C30.788 26.6529 30.962 26.6963 31.1214 26.7888L36.929 30.1565C37.409 30.4349 37.5735 31.0517 37.2964 31.5338Z" fill="#0974FB"/>
<path d="M39.4478 31.6105C38.9676 31.3321 38.3537 31.4973 38.0765 31.9796C37.7993 32.4619 37.9638 33.0785 38.4439 33.3569L43.2172 36.125C43.6974 36.4035 44.3113 36.2382 44.5885 35.756C44.8657 35.2737 44.7012 34.657 44.2211 34.3786L39.4478 31.6105Z" fill="#0974FB"/>
<path d="M37.1818 16.4807C37.1818 16.829 37.0017 17.1679 36.6796 17.3545L30.8723 20.7223C30.7351 20.802 30.5871 20.8451 30.4393 20.8551C30.1859 20.3142 29.8691 19.8091 29.4982 19.3495C29.5834 19.1989 29.7083 19.0688 29.8684 18.9758L35.6758 15.6083C36.156 15.3296 36.7698 15.4949 37.047 15.9772C37.1384 16.1361 37.1818 16.3095 37.1818 16.4807Z" fill="#0974FB"/>
<path d="M42.9582 11.3858L38.1849 14.1538C37.7047 14.4323 37.5402 15.0489 37.8175 15.5312C38.0947 16.0134 38.7086 16.1787 39.1887 15.9002L43.9621 13.1322C44.4422 12.8537 44.6067 12.2371 44.3295 11.7548C44.0523 11.2726 43.4384 11.1073 42.9582 11.3858Z" fill="#0974FB"/>
</svg>
