<svg width="258" height="224" viewBox="0 0 258 224" fill="none" xmlns="http://www.w3.org/2000/svg">
<g style="mix-blend-mode:hard-light">
<g filter="url(#filter0_f_1_3552)">
<path d="M188.746 116.225C205.854 110.466 217.982 96.0506 217.982 79.1785C217.982 57.2388 197.474 39.4531 172.176 39.4531C160.159 39.4531 149.222 43.4667 141.052 50.0325C135.641 44.5113 127.593 41.011 118.607 41.011C102.314 41.011 89.1053 52.5193 89.1053 66.7156C89.1053 69.5827 89.6441 72.3402 90.6381 74.9153C62.2541 80.1046 40.9707 101.664 40.9707 127.472C40.9707 157.155 69.1255 181.218 103.856 181.218C124.902 181.218 143.532 172.383 154.947 158.815C159.52 161.169 164.885 162.524 170.624 162.524C187.346 162.524 200.902 151.016 200.902 136.819C200.902 128.393 196.126 120.913 188.746 116.225Z" fill="url(#paint0_radial_1_3552)" fill-opacity="0.8"/>
</g>
<g style="mix-blend-mode:overlay" filter="url(#filter1_f_1_3552)">
<path d="M167.1 114.049C177.96 110.418 185.659 101.33 185.659 90.6931C185.659 76.8616 172.641 65.6489 156.582 65.6489C148.954 65.6489 142.011 68.1791 136.825 72.3185C133.39 68.8377 128.281 66.631 122.577 66.631C112.235 66.631 103.85 73.8863 103.85 82.8361C103.85 84.6436 104.192 86.382 104.823 88.0055C86.8054 91.277 73.295 104.869 73.295 121.139C73.295 139.852 91.1672 155.022 113.214 155.022C126.573 155.022 138.399 149.452 145.645 140.899C148.548 142.383 151.954 143.237 155.596 143.237C166.211 143.237 174.817 135.982 174.817 127.032C174.817 121.719 171.785 117.004 167.1 114.049Z" fill="url(#paint1_radial_1_3552)"/>
</g>
<g style="mix-blend-mode:plus-lighter" opacity="0.7" filter="url(#filter2_f_1_3552)">
<path d="M137.771 123.043C143.275 121.165 147.177 116.464 147.177 110.962C147.177 103.808 140.579 98.0082 132.44 98.0082C128.573 98.0082 125.055 99.3169 122.426 101.458C120.685 99.6576 118.096 98.5162 115.205 98.5162C109.962 98.5162 105.713 102.269 105.713 106.898C105.713 107.833 105.886 108.732 106.206 109.572C97.0737 111.264 90.226 118.294 90.226 126.71C90.226 136.389 99.2845 144.236 110.459 144.236C117.23 144.236 123.224 141.355 126.897 136.931C128.368 137.698 130.094 138.14 131.94 138.14C137.321 138.14 141.682 134.387 141.682 129.758C141.682 127.01 140.145 124.571 137.771 123.043Z" fill="url(#paint2_radial_1_3552)"/>
</g>
<g style="mix-blend-mode:plus-lighter" opacity="0.9" filter="url(#filter3_f_1_3552)">
<ellipse cx="161.8" cy="85.6808" rx="10.005" ry="9.24555" fill="url(#paint3_radial_1_3552)"/>
</g>
</g>
<g style="mix-blend-mode:hard-light">
<g filter="url(#filter4_f_1_3552)">
<path d="M159.881 149.388C164.79 147.76 168.271 143.686 168.271 138.918C168.271 132.718 162.386 127.691 155.126 127.691C151.678 127.691 148.54 128.826 146.195 130.681C144.642 129.121 142.333 128.132 139.754 128.132C135.079 128.132 131.289 131.384 131.289 135.396C131.289 136.206 131.443 136.985 131.728 137.713C123.583 139.18 117.476 145.273 117.476 152.566C117.476 160.955 125.555 167.755 135.521 167.755C141.561 167.755 146.907 165.258 150.182 161.424C151.495 162.089 153.034 162.472 154.681 162.472C159.479 162.472 163.369 159.22 163.369 155.208C163.369 152.826 161.999 150.713 159.881 149.388Z" fill="url(#paint4_radial_1_3552)" fill-opacity="0.8"/>
</g>
<g style="mix-blend-mode:overlay" filter="url(#filter5_f_1_3552)">
<path d="M153.696 148.748C156.82 147.746 159.035 145.239 159.035 142.305C159.035 138.489 155.29 135.396 150.67 135.396C148.476 135.396 146.479 136.094 144.987 137.236C143.999 136.276 142.529 135.667 140.888 135.667C137.913 135.667 135.501 137.668 135.501 140.137C135.501 140.636 135.599 141.115 135.781 141.563C130.598 142.466 126.711 146.215 126.711 150.704C126.711 155.866 131.852 160.051 138.195 160.051C142.038 160.051 145.44 158.514 147.524 156.154C148.359 156.564 149.339 156.799 150.387 156.799C153.441 156.799 155.916 154.798 155.916 152.329C155.916 150.864 155.044 149.563 153.696 148.748Z" fill="url(#paint5_radial_1_3552)"/>
</g>
<g style="mix-blend-mode:plus-lighter" opacity="0.7" filter="url(#filter6_f_1_3552)">
<path d="M145.465 151.317C147.101 150.816 148.262 149.563 148.262 148.096C148.262 146.188 146.3 144.641 143.88 144.641C142.731 144.641 141.685 144.99 140.903 145.561C140.385 145.081 139.616 144.777 138.756 144.777C137.198 144.777 135.934 145.778 135.934 147.012C135.934 147.261 135.986 147.501 136.081 147.725C133.366 148.176 131.33 150.051 131.33 152.295C131.33 154.876 134.023 156.969 137.345 156.969C139.358 156.969 141.14 156.201 142.232 155.021C142.67 155.225 143.183 155.343 143.732 155.343C145.331 155.343 146.628 154.342 146.628 153.108C146.628 152.375 146.171 151.725 145.465 151.317Z" fill="url(#paint6_radial_1_3552)"/>
</g>
<g style="mix-blend-mode:plus-lighter" opacity="0.9" filter="url(#filter7_f_1_3552)">
<ellipse cx="152.109" cy="140.789" rx="2.30884" ry="2.31139" fill="url(#paint7_radial_1_3552)"/>
</g>
</g>
<g style="mix-blend-mode:hard-light">
<g filter="url(#filter8_f_1_3552)">
<path d="M145.513 154.613C150.422 152.985 153.902 148.911 153.902 144.143C153.902 137.942 148.018 132.916 140.758 132.916C137.31 132.916 134.171 134.05 131.827 135.906C130.274 134.346 127.965 133.356 125.386 133.356C120.711 133.356 116.92 136.609 116.92 140.621C116.92 141.431 117.075 142.21 117.36 142.938C109.215 144.405 103.108 150.497 103.108 157.791C103.108 166.18 111.187 172.98 121.153 172.98C127.192 172.98 132.539 170.483 135.814 166.649C137.126 167.314 138.666 167.697 140.313 167.697C145.111 167.697 149.001 164.445 149.001 160.433C149.001 158.051 147.631 155.937 145.513 154.613Z" fill="url(#paint8_radial_1_3552)" fill-opacity="0.8"/>
</g>
<g style="mix-blend-mode:overlay" filter="url(#filter9_f_1_3552)">
<path d="M139.328 153.972C142.452 152.971 144.667 150.464 144.667 147.529C144.667 143.714 140.922 140.621 136.302 140.621C134.108 140.621 132.111 141.319 130.619 142.46C129.631 141.5 128.161 140.892 126.52 140.892C123.545 140.892 121.133 142.893 121.133 145.362C121.133 145.861 121.231 146.34 121.413 146.788C116.23 147.69 112.343 151.44 112.343 155.928C112.343 161.091 117.484 165.275 123.827 165.275C127.67 165.275 131.072 163.739 133.156 161.379C133.991 161.789 134.971 162.024 136.019 162.024C139.072 162.024 141.548 160.023 141.548 157.554C141.548 156.088 140.676 154.788 139.328 153.972Z" fill="url(#paint9_radial_1_3552)"/>
</g>
<g style="mix-blend-mode:plus-lighter" opacity="0.7" filter="url(#filter10_f_1_3552)">
<path d="M131.097 156.542C132.733 156.041 133.893 154.788 133.893 153.321C133.893 151.413 131.932 149.866 129.512 149.866C128.363 149.866 127.316 150.215 126.535 150.786C126.017 150.306 125.248 150.002 124.388 150.002C122.83 150.002 121.566 151.002 121.566 152.237C121.566 152.486 121.618 152.726 121.713 152.95C118.998 153.401 116.962 155.276 116.962 157.52C116.962 160.101 119.655 162.194 122.977 162.194C124.99 162.194 126.772 161.425 127.864 160.246C128.301 160.45 128.815 160.568 129.363 160.568C130.963 160.568 132.26 159.567 132.26 158.333C132.26 157.6 131.803 156.95 131.097 156.542Z" fill="url(#paint10_radial_1_3552)"/>
</g>
<g style="mix-blend-mode:plus-lighter" opacity="0.9" filter="url(#filter11_f_1_3552)">
<ellipse cx="137.741" cy="146.014" rx="2.30884" ry="2.31139" fill="url(#paint11_radial_1_3552)"/>
</g>
<g style="mix-blend-mode:hard-light">
<g filter="url(#filter12_f_1_3552)">
<path d="M106.327 76.2411C111.236 74.6135 114.717 70.5395 114.717 65.7714C114.717 59.571 108.832 54.5446 101.572 54.5446C98.124 54.5446 94.9857 55.6789 92.6411 57.5344C91.0883 55.9741 88.779 54.9849 86.2005 54.9849C81.525 54.9849 77.7347 58.2372 77.7347 62.2492C77.7347 63.0595 77.8893 63.8388 78.1746 64.5665C70.0296 66.0331 63.9222 72.126 63.9222 79.4195C63.9222 87.8083 72.0014 94.6087 81.9676 94.6087C88.0067 94.6087 93.3529 92.1116 96.6285 88.2773C97.9407 88.9425 99.4803 89.3255 101.127 89.3255C105.925 89.3255 109.815 86.0731 109.815 82.0611C109.815 79.6797 108.445 77.5659 106.327 76.2411Z" fill="url(#paint12_radial_1_3552)" fill-opacity="0.8"/>
</g>
<g style="mix-blend-mode:overlay" filter="url(#filter13_f_1_3552)">
<path d="M100.142 75.6008C103.266 74.5992 105.481 72.0922 105.481 69.1579C105.481 65.3423 101.736 62.2491 97.1166 62.2491C94.9222 62.2491 92.9251 62.9472 91.433 64.089C90.4449 63.1288 88.9753 62.5201 87.3344 62.5201C84.3591 62.5201 81.9471 64.5215 81.9471 66.9905C81.9471 67.4891 82.0455 67.9686 82.2271 68.4165C77.0439 69.319 73.1573 73.0684 73.1573 77.5568C73.1573 82.7191 78.2987 86.9039 84.6408 86.9039C88.4839 86.9039 91.886 85.3673 93.9705 83.0077C94.8055 83.4171 95.7853 83.6528 96.8331 83.6528C99.8867 83.6528 102.362 81.6513 102.362 79.1824C102.362 77.7169 101.49 76.4161 100.142 75.6008Z" fill="url(#paint13_radial_1_3552)"/>
</g>
<g style="mix-blend-mode:plus-lighter" opacity="0.7" filter="url(#filter14_f_1_3552)">
<path d="M91.9113 78.1705C93.5477 77.6697 94.7077 76.4162 94.7077 74.9491C94.7077 73.0413 92.7461 71.4947 90.3264 71.4947C89.1769 71.4947 88.1308 71.8437 87.3492 72.4146C86.8316 71.9345 86.0619 71.6302 85.2023 71.6302C83.6438 71.6302 82.3804 72.6309 82.3804 73.8653C82.3804 74.1147 82.432 74.3544 82.527 74.5784C79.8121 75.0296 77.7762 76.9043 77.7762 79.1485C77.7762 81.7297 80.4693 83.8221 83.7914 83.8221C85.8044 83.8221 87.5865 83.0538 88.6784 81.874C89.1158 82.0787 89.629 82.1965 90.1778 82.1965C91.7773 82.1965 93.074 81.1958 93.074 79.9613C93.074 79.2286 92.6171 78.5782 91.9113 78.1705Z" fill="url(#paint14_radial_1_3552)"/>
</g>
<g style="mix-blend-mode:plus-lighter" opacity="0.9" filter="url(#filter15_f_1_3552)">
<ellipse cx="98.5552" cy="67.6424" rx="2.30884" ry="2.31139" fill="url(#paint15_radial_1_3552)"/>
</g>
</g>
</g>
<defs>
<filter id="filter0_f_1_3552" x="1.78498" y="0.267406" width="255.383" height="220.136" filterUnits="userSpaceOnUse" color-interpolation-filters="sRGB">
<feFlood flood-opacity="0" result="BackgroundImageFix"/>
<feBlend mode="normal" in="SourceGraphic" in2="BackgroundImageFix" result="shape"/>
<feGaussianBlur stdDeviation="19.5929" result="effect1_foregroundBlur_1_3552"/>
</filter>
<filter id="filter1_f_1_3552" x="47.1712" y="39.5251" width="164.611" height="141.621" filterUnits="userSpaceOnUse" color-interpolation-filters="sRGB">
<feFlood flood-opacity="0" result="BackgroundImageFix"/>
<feBlend mode="normal" in="SourceGraphic" in2="BackgroundImageFix" result="shape"/>
<feGaussianBlur stdDeviation="13.0619" result="effect1_foregroundBlur_1_3552"/>
</filter>
<filter id="filter2_f_1_3552" x="66.7145" y="74.4967" width="103.974" height="93.2506" filterUnits="userSpaceOnUse" color-interpolation-filters="sRGB">
<feFlood flood-opacity="0" result="BackgroundImageFix"/>
<feBlend mode="normal" in="SourceGraphic" in2="BackgroundImageFix" result="shape"/>
<feGaussianBlur stdDeviation="11.7557" result="effect1_foregroundBlur_1_3552"/>
</filter>
<filter id="filter3_f_1_3552" x="141.346" y="65.9858" width="40.909" height="39.3901" filterUnits="userSpaceOnUse" color-interpolation-filters="sRGB">
<feFlood flood-opacity="0" result="BackgroundImageFix"/>
<feBlend mode="normal" in="SourceGraphic" in2="BackgroundImageFix" result="shape"/>
<feGaussianBlur stdDeviation="5.22476" result="effect1_foregroundBlur_1_3552"/>
</filter>
<filter id="filter4_f_1_3552" x="78.2903" y="88.5056" width="129.166" height="118.435" filterUnits="userSpaceOnUse" color-interpolation-filters="sRGB">
<feFlood flood-opacity="0" result="BackgroundImageFix"/>
<feBlend mode="normal" in="SourceGraphic" in2="BackgroundImageFix" result="shape"/>
<feGaussianBlur stdDeviation="19.5929" result="effect1_foregroundBlur_1_3552"/>
</filter>
<filter id="filter5_f_1_3552" x="100.587" y="109.272" width="84.5714" height="76.9024" filterUnits="userSpaceOnUse" color-interpolation-filters="sRGB">
<feFlood flood-opacity="0" result="BackgroundImageFix"/>
<feBlend mode="normal" in="SourceGraphic" in2="BackgroundImageFix" result="shape"/>
<feGaussianBlur stdDeviation="13.0619" result="effect1_foregroundBlur_1_3552"/>
</filter>
<filter id="filter6_f_1_3552" x="107.819" y="121.13" width="63.9544" height="59.3503" filterUnits="userSpaceOnUse" color-interpolation-filters="sRGB">
<feFlood flood-opacity="0" result="BackgroundImageFix"/>
<feBlend mode="normal" in="SourceGraphic" in2="BackgroundImageFix" result="shape"/>
<feGaussianBlur stdDeviation="11.7557" result="effect1_foregroundBlur_1_3552"/>
</filter>
<filter id="filter7_f_1_3552" x="139.351" y="128.028" width="25.5167" height="25.5218" filterUnits="userSpaceOnUse" color-interpolation-filters="sRGB">
<feFlood flood-opacity="0" result="BackgroundImageFix"/>
<feBlend mode="normal" in="SourceGraphic" in2="BackgroundImageFix" result="shape"/>
<feGaussianBlur stdDeviation="5.22476" result="effect1_foregroundBlur_1_3552"/>
</filter>
<filter id="filter8_f_1_3552" x="63.9222" y="93.7304" width="129.166" height="118.435" filterUnits="userSpaceOnUse" color-interpolation-filters="sRGB">
<feFlood flood-opacity="0" result="BackgroundImageFix"/>
<feBlend mode="normal" in="SourceGraphic" in2="BackgroundImageFix" result="shape"/>
<feGaussianBlur stdDeviation="19.5929" result="effect1_foregroundBlur_1_3552"/>
</filter>
<filter id="filter9_f_1_3552" x="86.2193" y="114.497" width="84.5714" height="76.9024" filterUnits="userSpaceOnUse" color-interpolation-filters="sRGB">
<feFlood flood-opacity="0" result="BackgroundImageFix"/>
<feBlend mode="normal" in="SourceGraphic" in2="BackgroundImageFix" result="shape"/>
<feGaussianBlur stdDeviation="13.0619" result="effect1_foregroundBlur_1_3552"/>
</filter>
<filter id="filter10_f_1_3552" x="93.4505" y="126.355" width="63.9544" height="59.3503" filterUnits="userSpaceOnUse" color-interpolation-filters="sRGB">
<feFlood flood-opacity="0" result="BackgroundImageFix"/>
<feBlend mode="normal" in="SourceGraphic" in2="BackgroundImageFix" result="shape"/>
<feGaussianBlur stdDeviation="11.7557" result="effect1_foregroundBlur_1_3552"/>
</filter>
<filter id="filter11_f_1_3552" x="124.983" y="133.253" width="25.5167" height="25.5219" filterUnits="userSpaceOnUse" color-interpolation-filters="sRGB">
<feFlood flood-opacity="0" result="BackgroundImageFix"/>
<feBlend mode="normal" in="SourceGraphic" in2="BackgroundImageFix" result="shape"/>
<feGaussianBlur stdDeviation="5.22476" result="effect1_foregroundBlur_1_3552"/>
</filter>
<filter id="filter12_f_1_3552" x="24.7365" y="15.3589" width="129.166" height="118.435" filterUnits="userSpaceOnUse" color-interpolation-filters="sRGB">
<feFlood flood-opacity="0" result="BackgroundImageFix"/>
<feBlend mode="normal" in="SourceGraphic" in2="BackgroundImageFix" result="shape"/>
<feGaussianBlur stdDeviation="19.5929" result="effect1_foregroundBlur_1_3552"/>
</filter>
<filter id="filter13_f_1_3552" x="47.0335" y="36.1253" width="84.5714" height="76.9024" filterUnits="userSpaceOnUse" color-interpolation-filters="sRGB">
<feFlood flood-opacity="0" result="BackgroundImageFix"/>
<feBlend mode="normal" in="SourceGraphic" in2="BackgroundImageFix" result="shape"/>
<feGaussianBlur stdDeviation="13.0619" result="effect1_foregroundBlur_1_3552"/>
</filter>
<filter id="filter14_f_1_3552" x="54.2648" y="47.9833" width="63.9544" height="59.3503" filterUnits="userSpaceOnUse" color-interpolation-filters="sRGB">
<feFlood flood-opacity="0" result="BackgroundImageFix"/>
<feBlend mode="normal" in="SourceGraphic" in2="BackgroundImageFix" result="shape"/>
<feGaussianBlur stdDeviation="11.7557" result="effect1_foregroundBlur_1_3552"/>
</filter>
<filter id="filter15_f_1_3552" x="85.7969" y="54.8815" width="25.5167" height="25.5218" filterUnits="userSpaceOnUse" color-interpolation-filters="sRGB">
<feFlood flood-opacity="0" result="BackgroundImageFix"/>
<feBlend mode="normal" in="SourceGraphic" in2="BackgroundImageFix" result="shape"/>
<feGaussianBlur stdDeviation="5.22476" result="effect1_foregroundBlur_1_3552"/>
</filter>
<radialGradient id="paint0_radial_1_3552" cx="0" cy="0" r="1" gradientUnits="userSpaceOnUse" gradientTransform="translate(130.672 126.693) rotate(89.2146) scale(87.2482 108.946)">
<stop stop-color="#FF9C7A"/>
<stop offset="1" stop-color="#FF4C00"/>
</radialGradient>
<radialGradient id="paint1_radial_1_3552" cx="0" cy="0" r="1" gradientUnits="userSpaceOnUse" gradientTransform="translate(130.246 110.336) rotate(136.162) scale(52.2821 37.2464)">
<stop stop-color="#FF9263"/>
<stop offset="1" stop-color="#FF4016"/>
</radialGradient>
<radialGradient id="paint2_radial_1_3552" cx="0" cy="0" r="1" gradientUnits="userSpaceOnUse" gradientTransform="translate(118.702 121.122) rotate(161.01) scale(26.0451 32.287)">
<stop stop-color="#FFFFE4"/>
<stop offset="1" stop-color="#FF8718"/>
</radialGradient>
<radialGradient id="paint3_radial_1_3552" cx="0" cy="0" r="1" gradientUnits="userSpaceOnUse" gradientTransform="translate(161.8 85.6808) rotate(90) scale(9.24555 10.005)">
<stop stop-color="#FFFFE4"/>
<stop offset="1" stop-color="#FF8718"/>
</radialGradient>
<radialGradient id="paint4_radial_1_3552" cx="0" cy="0" r="1" gradientUnits="userSpaceOnUse" gradientTransform="translate(143.216 152.346) rotate(89.2025) scale(24.6572 31.2628)">
<stop stop-color="#FF9C7A"/>
<stop offset="1" stop-color="#FF4C00"/>
</radialGradient>
<radialGradient id="paint5_radial_1_3552" cx="0" cy="0" r="1" gradientUnits="userSpaceOnUse" gradientTransform="translate(143.094 147.723) rotate(137.36) scale(14.7471 10.479)">
<stop stop-color="#FF9263"/>
<stop offset="1" stop-color="#FF4016"/>
</radialGradient>
<radialGradient id="paint6_radial_1_3552" cx="0" cy="0" r="1" gradientUnits="userSpaceOnUse" gradientTransform="translate(139.796 150.805) rotate(162.846) scale(7.6626 8.70037)">
<stop stop-color="#FFFFE4"/>
<stop offset="1" stop-color="#FF8718"/>
</radialGradient>
<radialGradient id="paint7_radial_1_3552" cx="0" cy="0" r="1" gradientUnits="userSpaceOnUse" gradientTransform="translate(152.109 140.789) rotate(90) scale(2.31139 2.30884)">
<stop stop-color="#FFFFE4"/>
<stop offset="1" stop-color="#FF8718"/>
</radialGradient>
<radialGradient id="paint8_radial_1_3552" cx="0" cy="0" r="1" gradientUnits="userSpaceOnUse" gradientTransform="translate(128.848 157.571) rotate(89.2025) scale(24.6572 31.2628)">
<stop stop-color="#FF9C7A"/>
<stop offset="1" stop-color="#FF4C00"/>
</radialGradient>
<radialGradient id="paint9_radial_1_3552" cx="0" cy="0" r="1" gradientUnits="userSpaceOnUse" gradientTransform="translate(128.726 152.948) rotate(137.36) scale(14.7471 10.479)">
<stop stop-color="#FF9263"/>
<stop offset="1" stop-color="#FF4016"/>
</radialGradient>
<radialGradient id="paint10_radial_1_3552" cx="0" cy="0" r="1" gradientUnits="userSpaceOnUse" gradientTransform="translate(125.428 156.03) rotate(162.846) scale(7.6626 8.70037)">
<stop stop-color="#FFFFE4"/>
<stop offset="1" stop-color="#FF8718"/>
</radialGradient>
<radialGradient id="paint11_radial_1_3552" cx="0" cy="0" r="1" gradientUnits="userSpaceOnUse" gradientTransform="translate(137.741 146.014) rotate(90) scale(2.31139 2.30884)">
<stop stop-color="#FFFFE4"/>
<stop offset="1" stop-color="#FF8718"/>
</radialGradient>
<radialGradient id="paint12_radial_1_3552" cx="0" cy="0" r="1" gradientUnits="userSpaceOnUse" gradientTransform="translate(89.6626 79.1994) rotate(89.2025) scale(24.6572 31.2628)">
<stop stop-color="#FF9C7A"/>
<stop offset="1" stop-color="#FF4C00"/>
</radialGradient>
<radialGradient id="paint13_radial_1_3552" cx="0" cy="0" r="1" gradientUnits="userSpaceOnUse" gradientTransform="translate(89.5406 74.5765) rotate(137.36) scale(14.7471 10.479)">
<stop stop-color="#FF9263"/>
<stop offset="1" stop-color="#FF4016"/>
</radialGradient>
<radialGradient id="paint14_radial_1_3552" cx="0" cy="0" r="1" gradientUnits="userSpaceOnUse" gradientTransform="translate(86.242 77.6584) rotate(162.846) scale(7.6626 8.70037)">
<stop stop-color="#FFFFE4"/>
<stop offset="1" stop-color="#FF8718"/>
</radialGradient>
<radialGradient id="paint15_radial_1_3552" cx="0" cy="0" r="1" gradientUnits="userSpaceOnUse" gradientTransform="translate(98.5552 67.6424) rotate(90) scale(2.31139 2.30884)">
<stop stop-color="#FFFFE4"/>
<stop offset="1" stop-color="#FF8718"/>
</radialGradient>
</defs>
</svg>
