<svg width="40" height="40" viewBox="0 0 40 40" fill="none" xmlns="http://www.w3.org/2000/svg">
<path d="M22.3467 22.5349C23.7358 22.5349 25.0693 23.0636 26.0528 24.0066C27.0364 24.9498 27.5899 26.2304 27.5899 27.5662V31.1882H25.92V27.5662C25.92 26.6599 25.5448 25.7894 24.8751 25.1472C24.2052 24.5051 23.2956 24.1443 22.3467 24.1443H17.9385C16.9896 24.1444 16.08 24.505 15.4102 25.1472C14.7405 25.7894 14.3653 26.6599 14.3653 27.5662V31.1882H12.6964V27.5662C12.6964 26.2304 13.2498 24.9498 14.2335 24.0066C15.2169 23.0638 16.5497 22.535 17.9385 22.5349H22.3467ZM20.0733 11.2634C21.4625 11.2634 22.7958 11.792 23.7794 12.7351C24.763 13.6783 25.3165 14.9589 25.3165 16.2947C25.3164 17.2907 25.0083 18.2641 24.4317 19.0916C23.8551 19.919 23.0357 20.5628 22.0782 20.9431C21.1209 21.3233 20.0679 21.423 19.0518 21.2292C18.0356 21.0354 17.1007 20.5566 16.3672 19.8533C15.634 19.15 15.1343 18.2536 14.9317 17.2771C14.7291 16.3003 14.8332 15.2878 15.2305 14.3679C15.6278 13.4481 16.3001 12.6625 17.1622 12.1101C18.0242 11.5578 19.0373 11.2635 20.0733 11.2634ZM20.0733 12.8718C19.1243 12.8719 18.2148 13.2334 17.545 13.8757C16.8753 14.5179 16.5001 15.3884 16.5001 16.2947C16.5001 16.9704 16.7087 17.6315 17.1006 18.1941C17.4927 18.7568 18.0509 19.1962 18.7042 19.4558C19.3576 19.7154 20.0776 19.7835 20.7715 19.6511C21.4655 19.5187 22.1022 19.1916 22.6016 18.7126C23.1009 18.2338 23.4406 17.6246 23.5782 16.9617C23.7157 16.2986 23.645 15.6109 23.3751 14.9861C23.1051 14.3613 22.6482 13.8265 22.0606 13.45C21.4728 13.0734 20.781 12.8718 20.0733 12.8718Z" fill="#0974FB" stroke="#0974FB" stroke-width="0.2"/>
<path d="M23.9169 9.01267L17.2873 5.25917L23.9169 1.5V9.01267Z" fill="#0974FB"/>
<path d="M24.6991 38.7L23.9716 35.963C30.2018 34.1856 34.5505 28.2516 34.5505 21.5396C34.5505 13.2944 28.085 6.58236 20.1426 6.58236V3.7431C29.5947 3.7431 37.2854 11.7271 37.2854 21.5396C37.2854 29.5292 32.1109 36.5876 24.6991 38.7Z" fill="#0974FB"/>
<path d="M22.9543 39.0974L22.5057 36.2979C22.998 36.2127 23.4903 36.0991 23.9717 35.9629L24.6992 38.6999C24.1303 38.8646 23.545 38.9952 22.9597 39.0974H22.9543Z" fill="#0974FB"/>
<path d="M19.1801 39.3074C17.9166 39.2336 16.664 39.0178 15.4496 38.6601L16.199 35.9287C17.2164 36.2297 18.2721 36.4114 19.3333 36.4738L19.1801 39.3074ZM11.9489 37.1723C10.8439 36.5477 9.79916 35.7867 8.84739 34.9236L10.6525 32.7885C11.4511 33.5153 12.3263 34.1513 13.2616 34.6794L11.9543 37.1723H11.9489ZM6.29292 32.0332C5.549 30.9714 4.91449 29.83 4.41125 28.6261L6.92196 27.4961C7.34315 28.5012 7.87373 29.4666 8.50278 30.3581L6.29292 32.0332ZM3.30085 24.8726C3.09846 23.7824 3 22.658 3 21.5393C3 21.3463 3 21.1532 3.01094 20.9601L5.74592 21.051C5.74592 21.21 5.74045 21.3747 5.74045 21.5393C5.74045 22.482 5.8225 23.4246 5.99207 24.3445L3.30632 24.8726H3.30085ZM6.19446 17.7858L3.547 17.076C3.86425 15.8097 4.31826 14.5718 4.89261 13.4077L7.32674 14.7081C6.83991 15.6905 6.46248 16.724 6.19446 17.7915V17.7858ZM9.08259 11.954L6.98213 10.1312C7.79168 9.12612 8.71064 8.21188 9.71164 7.41689L11.3745 9.67125C10.5321 10.3413 9.76087 11.1136 9.07712 11.9597L9.08259 11.954Z" fill="#0974FB"/>
<path d="M14.1149 7.95075L12.9717 5.37271C13.5077 5.11717 14.0657 4.88436 14.6291 4.68561L15.5097 7.37154C15.0393 7.53622 14.5689 7.72929 14.1204 7.95075H14.1149Z" fill="#0974FB"/>
</svg>
