<svg width="20" height="20" viewBox="0 0 20 20" fill="none" xmlns="http://www.w3.org/2000/svg">
<path fill-rule="evenodd" clip-rule="evenodd" d="M16.2499 11V9.375H14.9999V11.25C14.9955 11.4162 15.064 11.5761 15.1874 11.6875L16.8749 13.375V14.375H3.12494V13.375L4.81244 11.6875C4.93589 11.5761 5.0044 11.4162 4.99994 11.25V8.125C4.99994 5.36358 7.23852 3.125 9.99994 3.125C10.8791 3.12517 11.7422 3.36037 12.4999 3.80625V2.375C11.9058 2.10884 11.2727 1.94002 10.6249 1.875V0.625H9.37494V1.875C6.19022 2.23806 3.77668 4.91976 3.74994 8.125V11L2.06244 12.6875C1.93899 12.7989 1.87048 12.9588 1.87494 13.125V15C1.86376 15.1689 1.92601 15.3345 2.04573 15.4542C2.16545 15.5739 2.331 15.6362 2.49994 15.625H6.87494C6.87494 17.3509 8.27405 18.75 9.99994 18.75C11.7258 18.75 13.1249 17.3509 13.1249 15.625H17.4999C17.6689 15.6362 17.8344 15.5739 17.9541 15.4542C18.0739 15.3345 18.1361 15.1689 18.1249 15V13.125C18.1294 12.9588 18.0609 12.7989 17.9374 12.6875L16.2499 11ZM16.5001 7.63C17.8808 7.63 19.0001 6.51071 19.0001 5.13C19.0001 3.74929 17.8808 2.63 16.5001 2.63C15.1194 2.63 14.0001 3.74929 14.0001 5.13C14.0001 6.51071 15.1194 7.63 16.5001 7.63ZM8.12494 15.625C8.12494 16.6605 8.96441 17.5 9.99994 17.5C11.0355 17.5 11.8749 16.6605 11.8749 15.625H8.12494Z" fill="#FF4E28"/>
</svg>
