<svg width="21" height="35" viewBox="0 0 21 35" fill="none" xmlns="http://www.w3.org/2000/svg">
<path d="M17.2681 2.4574H4.38006C3.65984 2.4574 3.05334 3.0639 3.05334 3.78411V18.5675C3.05334 19.2877 3.65984 19.8942 4.38006 19.8942H17.2681C17.9884 19.8942 18.5949 19.2877 18.5949 18.5675V3.78411C18.5949 3.0639 17.9884 2.4574 17.2681 2.4574ZM7.60208 13.6397C7.60208 13.9537 7.34751 14.2083 7.03349 14.2083H5.13818C4.82416 14.2083 4.56959 13.9537 4.56959 13.6397C4.56959 13.3257 4.82416 13.0711 5.13818 13.0711H7.03349C7.34751 13.0711 7.60208 13.3257 7.60208 13.6397ZM12.5299 13.6397C12.5299 13.9537 12.2753 14.2083 11.9613 14.2083H9.68691C9.37289 14.2083 9.11832 13.9537 9.11832 13.6397C9.11832 13.3257 9.37289 13.0711 9.68692 13.0711H11.9613C12.2753 13.0711 12.5299 13.3257 12.5299 13.6397ZM17.0786 13.6397C17.0786 13.9537 16.824 14.2083 16.51 14.2083H14.6147C14.3007 14.2083 14.0461 13.9537 14.0461 13.6397C14.0461 13.3257 14.3007 13.0711 14.6147 13.0711H16.51C16.824 13.0711 17.0786 13.3257 17.0786 13.6397Z" fill="url(#paint0_linear_1_3582)"/>
<path d="M18.7843 0.183044H2.86377C1.72658 0.183044 0.778931 1.1307 0.778931 2.26788V20.7661C0.778931 21.8653 1.1959 22.8888 1.91611 23.6848L3.84933 25.8076L3.88723 25.8455C5.21394 27.2859 5.36557 27.4375 5.70673 27.4375C7.38152 27.4375 8.73921 28.7952 8.73921 30.47V32.1379C8.73921 32.339 8.7678 32.5392 8.82413 32.7323L8.82943 32.7505C9.09045 33.6454 9.91079 34.2606 10.843 34.2606C11.7752 34.2606 12.5956 33.6454 12.8566 32.7505L12.8619 32.7323C12.9182 32.5392 12.9468 32.339 12.9468 32.1379V30.5079C12.9468 28.8331 14.3045 27.4754 15.9793 27.4754C16.3204 27.4754 16.4721 27.3238 17.7988 25.8834L19.7699 23.6848C20.4901 22.8888 20.9071 21.8274 20.9071 20.7661V2.26788C20.8692 1.1307 19.9215 0.183044 18.7843 0.183044ZM7.03344 26.3383C6.71942 26.3383 6.46485 26.0837 6.46485 25.7697C6.46485 25.4556 6.71942 25.2011 7.03344 25.2011H8.17062C8.48465 25.2011 8.73921 25.4556 8.73921 25.7697C8.73921 26.0837 8.48465 26.3383 8.17062 26.3383H7.03344ZM11.5822 31.2661C11.4775 31.2661 11.3926 31.1812 11.3926 31.0765V29.5603C11.3926 29.2463 11.1381 28.9917 10.8241 28.9917C10.51 28.9917 10.2555 29.2463 10.2555 29.5603V31.0765C10.2555 31.1812 10.1706 31.2661 10.0659 31.2661C9.96125 31.2661 9.8764 31.1812 9.8764 31.0765V26.1487C9.8764 25.6254 10.3007 25.2011 10.8241 25.2011C11.3474 25.2011 11.7717 25.6254 11.7717 26.1487V31.0765C11.7717 31.1812 11.6868 31.2661 11.5822 31.2661ZM10.3859 33.1614C10.2185 33.1614 10.0709 33.0516 10.0228 32.8912C9.94983 32.648 10.1319 32.4032 10.3859 32.4032H11.2243C11.4782 32.4032 11.6604 32.648 11.5874 32.8912C11.5393 33.0516 11.3917 33.1614 11.2243 33.1614H10.3859ZM12.9089 25.7697C12.9089 25.4556 13.1635 25.2011 13.4775 25.2011H14.6147C14.9287 25.2011 15.1833 25.4556 15.1833 25.7697C15.1833 26.0837 14.9287 26.3383 14.6147 26.3383H13.4775C13.1635 26.3383 12.9089 26.0837 12.9089 25.7697ZM19.732 20.7661C19.732 21.5621 19.4287 22.3202 18.8981 22.9267L16.9648 25.0495L16.9269 25.0874C16.7178 25.3383 16.3204 25.1732 16.3204 24.8465V24.5946C16.3204 24.2913 16.0551 24.026 15.7518 24.026H5.89626C5.59301 24.026 5.32766 24.2913 5.32766 24.5946V24.8465C5.32766 25.1463 4.93313 25.2993 4.72117 25.0874L2.75005 22.9267C2.21936 22.3202 1.91611 21.5621 1.91611 20.7661V2.26788C1.91611 1.7372 2.33308 1.32023 2.86377 1.32023H18.7843C19.315 1.32023 19.732 1.7372 19.732 2.26788V20.7661Z" fill="url(#paint1_linear_1_3582)"/>
<path d="M6.63222 21.2005C6.0993 21.7334 5.9313 22.4294 6.25697 22.7551C6.58264 23.0808 7.27865 22.9128 7.81157 22.3798C8.34448 21.8469 8.51248 21.1509 8.18681 20.8252C7.86115 20.4996 7.16513 20.6676 6.63222 21.2005Z" fill="url(#paint2_linear_1_3582)"/>
<path d="M13.4569 21.2002C12.924 21.7331 12.756 22.4291 13.0817 22.7548C13.4073 23.0804 14.1034 22.9124 14.6363 22.3795C15.1692 21.8466 15.3372 21.1506 15.0115 20.8249C14.6859 20.4993 13.9898 20.6673 13.4569 21.2002Z" fill="url(#paint3_linear_1_3582)"/>
<path d="M10.0455 21.2002C9.51263 21.7331 9.34463 22.4291 9.6703 22.7548C9.99597 23.0804 10.692 22.9124 11.2249 22.3795C11.7578 21.8466 11.9258 21.1506 11.6001 20.8249C11.2745 20.4993 10.5785 20.6673 10.0455 21.2002Z" fill="url(#paint4_linear_1_3582)"/>
<defs>
<linearGradient id="paint0_linear_1_3582" x1="7.53647" y1="6.2717" x2="19.7263" y2="10.008" gradientUnits="userSpaceOnUse">
<stop stop-color="#FBA47F"/>
<stop offset="1" stop-color="#DF6B00"/>
</linearGradient>
<linearGradient id="paint1_linear_1_3582" x1="6.58513" y1="7.63752" x2="23.1714" y2="11.0065" gradientUnits="userSpaceOnUse">
<stop stop-color="#FBA47F"/>
<stop offset="1" stop-color="#DF6B00"/>
</linearGradient>
<linearGradient id="paint2_linear_1_3582" x1="7.96182" y1="21.7136" x2="5.9965" y2="22.2635" gradientUnits="userSpaceOnUse">
<stop stop-color="#FBA47F"/>
<stop offset="1" stop-color="#DF6B00"/>
</linearGradient>
<linearGradient id="paint3_linear_1_3582" x1="14.7865" y1="21.7133" x2="12.8212" y2="22.2632" gradientUnits="userSpaceOnUse">
<stop stop-color="#FBA47F"/>
<stop offset="1" stop-color="#DF6B00"/>
</linearGradient>
<linearGradient id="paint4_linear_1_3582" x1="11.3752" y1="21.7133" x2="9.40983" y2="22.2632" gradientUnits="userSpaceOnUse">
<stop stop-color="#FBA47F"/>
<stop offset="1" stop-color="#DF6B00"/>
</linearGradient>
</defs>
</svg>
