<svg width="47" height="46" viewBox="0 0 47 46" fill="none" xmlns="http://www.w3.org/2000/svg">
<path d="M23.3333 1C23.3333 0.447715 23.7813 -0.00226901 24.3331 0.0217215C29.8218 0.26037 35.057 2.45781 39.0779 6.23372C43.0988 10.0096 45.6207 15.0965 46.2035 20.5594C46.2621 21.1085 45.8411 21.5839 45.2899 21.6186L44.5314 21.6663C43.9802 21.701 43.5078 21.2818 43.446 20.733C42.9094 15.9709 40.6977 11.541 37.1885 8.24568C33.6794 4.95036 29.1194 3.02122 24.333 2.78468C23.7814 2.75742 23.3333 2.31228 23.3333 1.76V1Z" fill="#0974FB"/>
<path d="M45.3333 23C45.8856 23 46.3356 23.448 46.3116 23.9998C46.0729 29.4885 43.8755 34.7236 40.0996 38.7446C36.3237 42.7655 31.2369 45.2873 25.7739 45.8702C25.2248 45.9287 24.7494 45.5078 24.7147 44.9566L24.667 44.1981C24.6323 43.6469 25.0515 43.1745 25.6003 43.1127C30.3624 42.576 34.7923 40.3644 38.0876 36.8552C41.3829 33.3461 43.3121 28.7861 43.5486 23.9997C43.5759 23.448 44.021 23 44.5733 23H45.3333Z" fill="#0974FB"/>
<path d="M23.3333 45C23.3333 45.5523 22.8853 46.0023 22.3335 45.9783C16.8448 45.7396 11.6097 43.5422 7.58873 39.7663C3.56779 35.9904 1.04597 30.9036 0.463154 25.4406C0.404565 24.8915 0.82553 24.4161 1.37672 24.3814L2.13523 24.3337C2.68642 24.299 3.15881 24.7182 3.22065 25.267C3.75726 30.0291 5.96893 34.459 9.47808 37.7543C12.9872 41.0496 17.5473 42.9788 22.3337 43.2153C22.8853 43.2426 23.3333 43.6877 23.3333 44.24L23.3333 45Z" fill="#0974FB"/>
<path d="M1.33331 23C0.781028 23 0.331044 22.552 0.355035 22.0002C0.593683 16.5115 2.79112 11.2764 6.56704 7.25542C10.3429 3.23448 15.4298 0.712659 20.8927 0.129841C21.4418 0.0712525 21.9172 0.492217 21.9519 1.04341L21.9996 1.80191C22.0343 2.35311 21.6151 2.8255 21.0663 2.88734C16.3042 3.42395 11.8743 5.63561 8.57899 9.14477C5.28368 12.6539 3.35453 17.2139 3.11799 22.0003C3.09073 22.552 2.6456 23 2.09331 23H1.33331Z" fill="#E5E5E5"/>
<mask id="mask0_1_3477" style="mask-type:alpha" maskUnits="userSpaceOnUse" x="11" y="11" width="25" height="24">
<rect x="11.3333" y="11" width="24" height="24" fill="#D9D9D9"/>
</mask>
<g mask="url(#mask0_1_3477)">
<path d="M23.2085 27.3521C23.4005 27.9553 23.8552 28.1162 24.0943 28.1162H24.1145C24.4008 28.1162 24.8049 27.9285 25.007 27.399L25.5694 25.8978C25.8253 26.2664 26.2733 26.5044 26.7448 26.5044H28.9136V24.9127H26.8626L26.4518 23.8136C26.216 23.1769 25.7075 23.1233 25.5458 23.1233C25.1383 23.1333 24.8116 23.3813 24.65 23.8035L24.1717 25.0601L23.0065 21.3875C22.8381 20.8513 22.444 20.6603 22.1106 20.6603C21.9557 20.6603 21.4303 20.7139 21.2249 21.3942L20.164 24.9127H18.0659V26.5044H20.3189C20.9184 26.5044 21.4775 26.1022 21.6425 25.5493L22.1308 23.9375L23.2085 27.3521Z" fill="black"/>
<path fill-rule="evenodd" clip-rule="evenodd" d="M26.4484 15.1983C27.2095 14.88 28.0245 14.7191 28.8497 14.7191C29.6714 14.7191 30.4898 14.8833 31.2509 15.2017C32.012 15.52 32.6991 15.9824 33.2783 16.5688C34.4537 17.7584 35.1138 19.3635 35.1138 21.0323C35.1138 22.701 34.4537 24.3061 33.2783 25.4957L23.5015 35.3475L13.7247 25.4957C12.5494 24.3061 11.8893 22.7044 11.8893 21.0323C11.8893 19.3602 12.5494 17.7584 13.7247 16.5655C14.304 15.9791 14.991 15.5133 15.7522 15.1983C16.5133 14.8833 17.3317 14.7191 18.1534 14.7191C18.9752 14.7191 19.7936 14.8833 20.5547 15.1983C21.3158 15.5166 22.0029 15.9824 22.5821 16.5655L23.5015 17.4903L24.421 16.5655C25.0002 15.9824 25.6873 15.5166 26.4484 15.1983ZM30.6077 16.7196C30.052 16.4851 29.4525 16.3678 28.8497 16.3678C28.2434 16.3678 27.644 16.4884 27.0849 16.723C26.5258 16.9609 26.0207 17.3027 25.5997 17.7383L23.5015 19.8662L21.3967 17.7216C20.9723 17.2926 20.4671 16.9508 19.9114 16.7196C19.3558 16.4884 18.7563 16.3678 18.1534 16.3678C17.5506 16.3678 16.9545 16.4851 16.3954 16.7196C15.8364 16.9542 15.3346 17.2926 14.9102 17.7216C14.038 18.6028 13.5496 19.7857 13.5496 21.0222C13.5496 22.2587 14.038 23.4416 14.9102 24.3229L23.5015 32.9784L32.0929 24.3229C32.9651 23.4416 33.4535 22.2587 33.4535 21.0222C33.4535 19.7857 32.9651 18.6028 32.0929 17.7216C31.6685 17.2926 31.1633 16.9508 30.6077 16.7196Z" fill="black"/>
</g>
</svg>
