<svg width="44" height="22" viewBox="0 0 44 22" fill="none" xmlns="http://www.w3.org/2000/svg">
<path d="M43.9557 18.8552C43.3432 14.1304 41.1383 9.70681 37.644 6.30598C36.2643 4.96321 34.717 3.82123 33.0536 2.88632C32.9827 2.84239 32.9118 2.81102 32.8408 2.77337C32.5572 2.61651 32.2735 2.47219 31.9834 2.32788C31.8673 2.27141 31.7577 2.21493 31.6417 2.15846C31.2548 1.9765 30.8616 1.80081 30.4618 1.63767C30.0621 1.47453 29.6559 1.33022 29.2498 1.19217C29.1273 1.14825 29.0048 1.1106 28.8887 1.07296C28.5857 0.978838 28.2763 0.884719 27.9668 0.803149C27.8443 0.771776 27.7218 0.734128 27.5993 0.702755C26.7612 0.489419 25.9102 0.326279 25.0527 0.207062C24.9237 0.188238 24.8012 0.175689 24.6723 0.16314C24.3564 0.125492 24.034 0.094119 23.7181 0.0690206C23.5892 0.0564714 23.4538 0.0501968 23.3248 0.0376476C22.9187 0.0125492 22.5125 0 22.1063 0C22.0805 0 22.0548 0 22.029 0C22.029 0 22.0225 0 22.0161 0H22.0032C21.5712 0 21.1393 0.0188238 20.7138 0.0376476C20.5848 0.0439222 20.4623 0.0564714 20.3334 0.062746C20.011 0.0878444 19.6951 0.119217 19.3727 0.15059C19.2438 0.16314 19.1084 0.181963 18.9795 0.200787C18.5926 0.250984 18.2123 0.31373 17.8254 0.382751C17.7803 0.389025 17.7352 0.3953 17.69 0.407849C17.2645 0.489419 16.8455 0.583538 16.4264 0.690206C16.3103 0.721579 16.1879 0.752952 16.0718 0.784325C15.7623 0.865895 15.4529 0.960014 15.1434 1.05413C15.0209 1.09178 14.892 1.1357 14.7695 1.17335C14.4084 1.29257 14.0474 1.42433 13.6864 1.56865C13.6412 1.58747 13.5961 1.60002 13.5445 1.61885C13.1448 1.78199 12.7515 1.9514 12.3647 2.13336C12.2551 2.18356 12.1455 2.24003 12.0359 2.2965C11.778 2.422 11.5201 2.55376 11.2687 2.6918C11.2171 2.71063 11.172 2.742 11.1268 2.77337C11.0753 2.79847 11.0237 2.82357 10.9721 2.85494C10.7078 3.00553 10.4499 3.1624 10.192 3.31926C10.0889 3.38201 9.9857 3.44476 9.88254 3.5075C9.51505 3.73966 9.14757 3.98437 8.79297 4.24163C8.76074 4.26673 8.73495 4.28555 8.70271 4.31065C8.38036 4.54909 8.06445 4.7938 7.75498 5.04478C7.65183 5.12635 7.55512 5.21419 7.45841 5.29576C7.20698 5.5091 6.96198 5.72871 6.71699 5.9546C6.62673 6.03617 6.54292 6.11146 6.45266 6.19931C6.41398 6.23696 6.36885 6.2746 6.33016 6.31225C6.07228 6.56323 5.82084 6.82677 5.57585 7.0903C5.51782 7.15305 5.46624 7.21579 5.40822 7.27226C5.13744 7.56717 4.87955 7.86835 4.62812 8.17581C4.60233 8.21346 4.57009 8.24483 4.5443 8.2762C4.27352 8.60876 4.02208 8.95386 3.77709 9.29896C3.72551 9.37426 3.67394 9.44955 3.62236 9.51857C3.37737 9.86995 3.14527 10.2276 2.92607 10.5915C2.91962 10.6041 2.91317 10.6166 2.90028 10.6292C2.86804 10.6856 2.83581 10.7421 2.80357 10.7986C2.67463 11.0245 2.54569 11.2441 2.41674 11.4762C2.35872 11.5766 2.30714 11.6833 2.25556 11.7837C2.14596 11.9908 2.04281 12.1916 1.9461 12.4049C1.89452 12.5116 1.84295 12.612 1.79782 12.7186C1.68822 12.9508 1.58506 13.1892 1.48835 13.4276C1.45612 13.5029 1.42388 13.5782 1.39165 13.6535C1.2627 13.9673 1.14666 14.281 1.03705 14.5947C1.01127 14.67 0.985477 14.7453 0.959688 14.8269C0.875875 15.0716 0.798509 15.3163 0.727591 15.561C0.695355 15.674 0.663119 15.7869 0.630883 15.8936C0.566412 16.1132 0.514835 16.3328 0.45681 16.5524C0.431022 16.6653 0.398786 16.7783 0.372997 16.8975C0.32142 17.1359 0.269843 17.3806 0.224713 17.6191C0.205372 17.7132 0.18603 17.801 0.173136 17.8952C0.115111 18.2152 0.0635343 18.5352 0.0248514 18.8552C0.0248514 18.8552 0.0248514 18.8615 0.0248514 18.8677C0.0248514 18.8866 0.0248514 18.9054 0.0184043 18.9179C-0.168563 20.3925 1.09508 21.6035 2.62305 21.5972C4.15103 21.5972 5.36309 20.3736 5.61453 18.9054C5.6919 18.4473 5.79505 17.9893 5.9111 17.5375C5.94333 17.4057 5.98846 17.274 6.02715 17.1422C6.11741 16.8285 6.21411 16.521 6.32372 16.2136C6.38174 16.0567 6.44621 15.8998 6.50424 15.743C6.61384 15.4669 6.72989 15.1908 6.85238 14.921C6.9233 14.7641 7.00067 14.6073 7.07803 14.4504C7.21342 14.1806 7.36171 13.9108 7.51644 13.641C7.60025 13.4904 7.68406 13.3398 7.78077 13.1892C7.86458 13.0574 7.9484 12.932 8.03221 12.8065C8.1676 12.6057 8.30299 12.3986 8.44483 12.2041C8.53509 12.0786 8.63179 11.9531 8.7285 11.8276C8.87679 11.6331 9.03152 11.4449 9.1927 11.2566C9.2894 11.1374 9.39256 11.0245 9.49571 10.9115C9.67623 10.7107 9.85675 10.5225 10.0437 10.3343C10.1469 10.2339 10.2436 10.1272 10.3403 10.0331C10.4048 9.97034 10.4692 9.91387 10.5337 9.85113C10.7142 9.68171 10.9012 9.51857 11.0882 9.36171C11.1655 9.29896 11.2364 9.23621 11.3138 9.17347C11.5459 8.98523 11.778 8.80327 12.023 8.6213C12.0488 8.60248 12.0681 8.58366 12.0939 8.56483C12.3582 8.37032 12.6355 8.18836 12.9127 8.01267C12.9901 7.96247 13.0674 7.91855 13.1448 7.86835C13.3576 7.73658 13.5768 7.61109 13.8024 7.4856C13.8282 7.47305 13.854 7.45423 13.8798 7.44168C14.0925 7.32246 14.3117 7.21579 14.5309 7.10912C14.6147 7.07148 14.6921 7.02755 14.7759 6.98991C15.0661 6.85187 15.3626 6.7201 15.6656 6.60088C15.6979 6.58833 15.7366 6.57578 15.7688 6.56323C16.0396 6.45657 16.3039 6.36245 16.5811 6.26833C16.6778 6.23695 16.7681 6.20558 16.8648 6.18048C17.0969 6.10519 17.329 6.04244 17.5611 5.9797C17.6514 5.9546 17.7352 5.9295 17.8254 5.91068C18.1413 5.82911 18.4572 5.76009 18.7732 5.69734C18.8054 5.69106 18.8376 5.68479 18.8699 5.67852C19.1535 5.62204 19.4437 5.57812 19.7338 5.54047C19.8305 5.52793 19.9272 5.51538 20.0304 5.50283C20.2689 5.47773 20.5074 5.45263 20.7524 5.43381C20.8491 5.42753 20.9394 5.42126 21.0361 5.41498C21.3649 5.39616 21.6873 5.38361 22.0161 5.38361C22.0354 5.38361 22.0548 5.38361 22.0805 5.38361C22.39 5.38361 22.693 5.39616 23.0025 5.41498C23.0992 5.41498 23.1959 5.42753 23.2991 5.43381C23.5376 5.45263 23.7826 5.47773 24.0211 5.50283C24.1178 5.51538 24.2081 5.52165 24.3048 5.5342C24.9495 5.62204 25.5878 5.74754 26.2196 5.9044C26.3099 5.9295 26.4001 5.9546 26.4904 5.9797C26.7225 6.04244 26.9546 6.11146 27.1802 6.18676C27.2705 6.21813 27.3608 6.24323 27.451 6.2746C28.0635 6.48166 28.6631 6.72637 29.2498 7.00246C29.3336 7.0401 29.4174 7.08403 29.5012 7.12795C29.7204 7.23462 29.9332 7.34756 30.1524 7.46678C31.4547 8.18208 32.6732 9.0668 33.7499 10.1147C36.2062 12.5053 37.8116 15.5673 38.3854 18.8615C38.6368 20.3297 39.8553 21.5407 41.3833 21.5407C42.9113 21.5407 44.1685 20.3297 43.9815 18.8552H43.9557Z" fill="url(#paint0_linear_1_3346)"/>
<path d="M3.99779 17.91L22.0875 16.7803C22.7633 16.783 23.3205 17.3241 23.3322 17.9888C23.3438 18.6534 22.8053 19.19 22.1295 19.1873L3.99779 17.91Z" fill="#040404"/>
<defs>
<linearGradient id="paint0_linear_1_3346" x1="-0.00738434" y1="10.7986" x2="43.9751" y2="10.7986" gradientUnits="userSpaceOnUse">
<stop stop-color="#02F1A5"/>
<stop offset="1" stop-color="#C091DE"/>
</linearGradient>
</defs>
</svg>
