<svg width="47" height="46" viewBox="0 0 47 46" fill="none" xmlns="http://www.w3.org/2000/svg">
<path d="M23.6666 1C23.6666 0.447715 24.1147 -0.00226901 24.6664 0.0217215C30.1551 0.26037 35.3903 2.45781 39.4112 6.23372C43.4321 10.0096 45.954 15.0965 46.5368 20.5594C46.5954 21.1085 46.1744 21.5839 45.6232 21.6186L44.8647 21.6663C44.3135 21.701 43.8411 21.2818 43.7793 20.733C43.2427 15.9709 41.031 11.541 37.5219 8.24568C34.0127 4.95036 29.4527 3.02122 24.6663 2.78468C24.1147 2.75742 23.6666 2.31228 23.6666 1.76V1Z" fill="#0974FB"/>
<path d="M45.6666 23C46.2189 23 46.6689 23.448 46.6449 23.9998C46.4063 29.4885 44.2088 34.7236 40.4329 38.7446C36.657 42.7655 31.5702 45.2873 26.1073 45.8702C25.5581 45.9287 25.0827 45.5078 25.048 44.9566L25.0003 44.1981C24.9656 43.6469 25.3848 43.1745 25.9336 43.1127C30.6957 42.576 35.1256 40.3644 38.421 36.8552C41.7163 33.3461 43.6454 28.7861 43.8819 23.9997C43.9092 23.448 44.3543 23 44.9066 23H45.6666Z" fill="#0974FB"/>
<path d="M23.6666 45C23.6666 45.5523 23.2186 46.0023 22.6668 45.9783C17.1781 45.7396 11.943 43.5422 7.92204 39.7663C3.9011 35.9904 1.37928 30.9036 0.796467 25.4406C0.737878 24.8915 1.15884 24.4161 1.71004 24.3814L2.46854 24.3337C3.01973 24.299 3.49212 24.7182 3.55397 25.267C4.09058 30.0291 6.30224 34.459 9.81139 37.7543C13.3205 41.0496 17.8806 42.9788 22.667 43.2153C23.2186 43.2426 23.6666 43.6877 23.6666 44.24L23.6666 45Z" fill="#E5E5E5"/>
<path d="M1.66663 23C1.11434 23 0.664357 22.552 0.688348 22.0002C0.926996 16.5115 3.12444 11.2764 6.90035 7.25542C10.6763 3.23448 15.7631 0.712659 21.226 0.129841C21.7752 0.0712525 22.2506 0.492217 22.2852 1.04341L22.333 1.80191C22.3676 2.35311 21.9484 2.8255 21.3996 2.88734C16.6375 3.42395 12.2076 5.63561 8.9123 9.14477C5.61699 12.6539 3.68784 17.2139 3.45131 22.0003C3.42405 22.552 2.97891 23 2.42663 23H1.66663Z" fill="#E5E5E5"/>
<mask id="mask0_1_3501" style="mask-type:alpha" maskUnits="userSpaceOnUse" x="11" y="11" width="25" height="24">
<rect x="11.6666" y="11" width="24" height="24" fill="#D9D9D9"/>
</mask>
<g mask="url(#mask0_1_3501)">
</g>
<g clip-path="url(#clip0_1_3501)">
<path d="M15.5275 32.8001V30.0018C15.5275 28.5969 16.7575 27.4546 18.2685 27.4546C18.6862 27.4546 19.1096 27.5486 19.4934 27.7266L22.1143 28.9333C23.126 29.4027 24.2064 29.6411 25.3265 29.6411C29.2915 29.6411 32.6027 27.0026 33.1988 23.3675L33.2971 22.8397C33.5298 21.4556 33.0594 20.0736 32.0065 19.0515C31.0714 18.1637 29.8263 17.6735 28.5024 17.6735C28.3261 17.6735 28.1476 17.6822 27.972 17.7003L26.7948 17.8145C26.6893 17.8279 26.5759 17.8353 26.4624 17.8353C25.8352 17.8353 25.2079 17.6083 24.6949 17.1973C24.1175 16.7333 23.7872 16.047 23.7872 15.3136V12.6758H25.4464V15.2915C25.4457 15.5796 25.5678 15.8421 25.7904 16.0302C25.9869 16.196 26.2211 16.284 26.466 16.284C26.5087 16.284 26.5528 16.2813 26.5961 16.276L27.7791 16.1611C28.0248 16.1356 28.2755 16.1222 28.5227 16.1222C30.283 16.1222 31.9364 16.7803 33.1779 17.975L33.6577 18.4363L33.6035 18.4263C34.72 19.7351 35.1991 21.4019 34.9259 23.0868L34.8276 23.6153C34.1007 27.9992 30.1045 31.1837 25.3272 31.1837C23.9889 31.1837 22.6252 30.8855 21.3845 30.3207L18.762 29.1133C18.5973 29.0361 18.4325 28.9971 18.2707 28.9971C17.6839 28.9971 17.1881 29.4578 17.1881 30.0031V32.8001H15.5275Z" fill="black"/>
<path d="M11.9996 32.8008V29.3201C11.9996 25.8684 15.0101 23.0606 18.71 23.0606H22.3131C22.6686 23.0606 22.9887 22.8759 23.1484 22.5798C23.3515 22.1822 23.2164 21.7048 22.8319 21.4724L22.4345 21.2186C21.042 20.3563 20.2088 18.9145 20.2088 17.3639V12.6758H21.8679V17.3632C21.8679 18.4108 22.4272 19.3785 23.3631 19.9507L23.7591 20.2039C24.8459 20.868 25.2253 22.193 24.6392 23.2836C24.215 24.0962 23.3327 24.6018 22.3376 24.6018H18.7107C15.925 24.6018 13.6588 26.7186 13.6588 29.3195V32.8001L11.9996 32.8008Z" fill="black"/>
<path d="M30.9319 23.246L31.0671 22.522C31.1805 21.7612 30.9319 21.0359 30.3647 20.4872C29.8848 20.0198 29.2099 19.7519 28.5118 19.7519H28.295V18.21H28.5118C29.6796 18.21 30.7628 18.6452 31.5613 19.4356C32.4892 20.322 32.9033 21.5382 32.6952 22.7698L32.56 23.4938L30.9319 23.246Z" fill="black"/>
</g>
<defs>
<clipPath id="clip0_1_3501">
<rect width="23" height="23" fill="white" transform="translate(11.9996 11.2383)"/>
</clipPath>
</defs>
</svg>
