<svg width="30" height="28" viewBox="0 0 30 28" fill="none" xmlns="http://www.w3.org/2000/svg">
<path fill-rule="evenodd" clip-rule="evenodd" d="M14.7088 1.96517C21.7673 -1.64809 26.0838 0.427079 27.8931 3.98483C28.8599 5.88635 29.6386 9.25958 29.1765 12.7795H22.6356L21.7816 11.0002C21.4283 10.1597 20.2457 10.0716 19.7855 10.8828L19.0887 12.1104L17.6612 6.43281C17.4317 5.28964 15.7961 5.22176 15.4874 6.35967L13.9587 11.984L13.4524 10.1106C13.2274 9.26521 12.1367 8.98879 11.5426 9.66014L8.77472 12.7795H0.240762C-0.221303 9.25958 0.557307 5.88635 1.52457 3.98483C3.33345 0.427079 7.64994 -1.64809 14.7088 1.96517ZM28.708 15.0144C27.1955 20.1755 19.3989 26.1992 14.7088 27.03C10.0188 26.1989 2.22217 20.1759 0.709579 15.0148H9.27167C9.63922 15.0148 9.96514 14.837 10.1688 14.5636L11.8359 12.6849L12.8752 16.551C13.17 17.6536 14.7347 17.6424 15.031 16.5547L16.5244 11.064L17.602 15.3504C17.8544 16.3608 19.2252 16.4936 19.6831 15.5789L20.6729 13.8345L20.9336 14.3772C21.1245 14.7766 21.5224 15.0099 21.9376 15.0103L28.708 15.0144Z" fill="url(#paint0_linear_1_3609)"/>
<defs>
<linearGradient id="paint0_linear_1_3609" x1="7.06666" y1="4.17737" x2="43.1949" y2="13.7904" gradientUnits="userSpaceOnUse">
<stop stop-color="#FF6161"/>
<stop offset="1" stop-color="#F52828"/>
</linearGradient>
</defs>
</svg>
