<svg width="12" height="12" viewBox="0 0 12 12" fill="none" xmlns="http://www.w3.org/2000/svg">
<rect width="12" height="12" rx="6" fill="#0974FB"/>
<path d="M6.7025 1.41299C7.31716 1.41299 7.62449 1.83133 7.62449 2.31067C7.62449 2.90927 7.09056 3.46292 6.39563 3.46292C5.81354 3.46292 5.47411 3.1189 5.49016 2.55011C5.49016 2.07169 5.89428 1.41299 6.7025 1.41299ZM4.81129 10.587C4.32598 10.587 3.97049 10.2879 4.30993 8.97053L4.86679 6.63483C4.96357 6.26145 4.97963 6.11145 4.86679 6.11145C4.72138 6.11145 4.09204 6.36924 3.71912 6.62382L3.47693 6.22017C4.6567 5.21745 6.014 4.62985 6.59654 4.62985C7.08139 4.62985 7.16212 5.21378 6.91993 6.11145L6.28188 8.56642C6.16904 8.99989 6.2172 9.14942 6.3305 9.14942C6.47591 9.14942 6.95295 8.96961 7.42175 8.59577L7.69697 8.96915C6.5493 10.1375 5.29567 10.587 4.81129 10.587Z" fill="white"/>
</svg>
