<svg width="36" height="36" viewBox="0 0 36 36" fill="none" xmlns="http://www.w3.org/2000/svg">
<path d="M1.75 4.375H15.75V2.82625C15.75 2.55792 15.638 2.31117 15.414 2.086C15.19 1.86083 14.9432 1.74883 14.6737 1.75H2.82625C2.55792 1.75 2.31117 1.862 2.086 2.086C1.86083 2.31 1.74883 2.55675 1.75 2.82625V4.375ZM2.828 31.5C2.02183 31.5 1.34925 31.2305 0.81025 30.6915C0.27125 30.1525 0.00116667 29.4799 0 28.6737V2.82625C0 2.02125 0.270083 1.34925 0.81025 0.81025C1.35042 0.27125 2.0265 0.00116667 2.8385 0H14.6597C15.4729 0 16.1496 0.270083 16.6897 0.81025C17.2299 1.35042 17.4994 2.023 17.4982 2.828V9.07025C17.4982 9.30825 17.4142 9.50775 17.2463 9.66875C17.0782 9.82975 16.87 9.91025 16.6215 9.91025C16.373 9.91025 16.1653 9.82683 15.9985 9.66C15.8317 9.49317 15.7482 9.28492 15.7482 9.03525V6.125H1.74825V25.375H12.1782C12.4256 25.375 12.6332 25.4578 12.8012 25.6235C12.9692 25.7868 13.0532 25.991 13.0532 26.236C13.0532 26.4647 12.9692 26.67 12.8012 26.852C12.6332 27.034 12.4256 27.125 12.1782 27.125H1.74825V28.6737C1.74825 28.9421 1.86083 29.1888 2.086 29.414C2.31 29.638 2.55675 29.75 2.82625 29.75H16.0422C16.2896 29.75 16.4972 29.834 16.6652 30.002C16.8333 30.17 16.9167 30.3782 16.9155 30.6267C16.9143 30.8752 16.8309 31.0829 16.6652 31.2498C16.4996 31.4166 16.2913 31.5 16.0405 31.5H2.828ZM23.625 26.25C25.3843 26.25 26.8788 25.6352 28.1085 24.4055C29.3382 23.1758 29.953 21.6813 29.953 19.922C29.953 18.1627 29.3376 16.6688 28.1067 15.4403C26.8782 14.2106 25.3843 13.5957 23.625 13.5957C21.8668 13.5957 20.3729 14.2106 19.1432 15.4403C17.9136 16.6699 17.2987 18.1644 17.2987 19.9237C17.2987 21.6831 17.9136 23.177 19.1432 24.4055C20.3729 25.634 21.8668 26.2488 23.625 26.25ZM21.525 31.5C21.1283 31.5 20.7958 31.3647 20.5275 31.094C20.2592 30.8222 20.125 30.4862 20.125 30.086V27.2195C18.7518 26.5662 17.6458 25.5908 16.807 24.2935C15.9682 22.9962 15.5482 21.5367 15.547 19.915C15.5458 18.2933 15.9658 16.8368 16.807 15.5453C17.6482 14.2538 18.7542 13.2808 20.125 12.6263V9.75975C20.125 9.35958 20.2592 9.02358 20.5275 8.75175C20.7958 8.47992 21.1283 8.34458 21.525 8.34575H25.725C26.1217 8.34575 26.4542 8.48108 26.7225 8.75175C26.9908 9.02242 27.125 9.35842 27.125 9.75975V12.6263C28.4982 13.2796 29.6042 14.2549 30.443 15.5522C31.2818 16.8496 31.7018 18.3091 31.703 19.9307C31.7042 21.5524 31.2842 23.0096 30.443 24.3022C29.6018 25.5949 28.4958 26.5673 27.125 27.2195V30.086C27.125 30.4873 26.9908 30.8233 26.7225 31.094C26.4542 31.3647 26.1217 31.5 25.725 31.5H21.525Z" fill="#0974FB"/>
</svg>
