<svg width="48" height="48" viewBox="0 0 48 48" fill="none" xmlns="http://www.w3.org/2000/svg">
<path d="M24.0001 0.999999C24.0001 0.447714 24.4482 -0.00217409 25 0.0208176C30.7431 0.260115 36.2229 2.55472 40.4293 6.50475C44.6356 10.4548 47.2698 15.7796 47.8692 21.4965C47.9268 22.0457 47.5059 22.5211 46.9547 22.5558L46.0765 22.6111C45.5253 22.6458 45.0528 22.2266 44.9921 21.6777C44.4407 16.6921 42.1301 12.0527 38.4578 8.60418C34.7854 5.15562 30.0101 3.14091 24.9998 2.90365C24.4481 2.87753 24.0001 2.43229 24.0001 1.88V0.999999Z" fill="#0974FB"/>
<path d="M47.0001 24C47.5524 24 48.0023 24.448 47.9793 24.9998C47.74 30.743 45.4454 36.2228 41.4954 40.4291C37.5453 44.6355 32.2205 47.2696 26.5037 47.8691C25.9544 47.9267 25.479 47.5058 25.4443 46.9546L25.389 46.0764C25.3544 45.5252 25.7735 45.0527 26.3225 44.992C31.308 44.4406 35.9474 42.13 39.3959 38.4576C42.8445 34.7853 44.8592 30.01 45.0965 24.9997C45.1226 24.448 45.5678 24 46.1201 24H47.0001Z" fill="#E5E5E5"/>
<path d="M24.0001 47C24.0001 47.5523 23.5521 48.0022 23.0003 47.9792C17.2571 47.7399 11.7774 45.4453 7.57099 41.4952C3.36463 37.5452 0.730479 32.2204 0.131038 26.5035C0.0734432 25.9543 0.494312 25.4789 1.04551 25.4442L1.92377 25.3889C2.47497 25.3542 2.94746 25.7734 3.00817 26.3223C3.55957 31.3079 5.87014 35.9473 9.54249 39.3958C13.2148 42.8444 17.9901 44.8591 23.0005 45.0963C23.5521 45.1225 24.0001 45.5677 24.0001 46.12V47Z" fill="#E5E5E5"/>
<path d="M1.00012 24C0.447836 24 -0.00205199 23.552 0.0209398 23.0002C0.260237 17.257 2.55484 11.7772 6.50488 7.57087C10.4549 3.36451 15.7798 0.730358 21.4966 0.130916C22.0459 0.0733213 22.5213 0.49419 22.5559 1.04539L22.6112 1.92365C22.6459 2.47484 22.2267 2.94734 21.6778 3.00805C16.6922 3.55944 12.0529 5.87002 8.60431 9.54237C5.15575 13.2147 3.14103 17.99 2.90377 23.0003C2.87765 23.552 2.43241 24 1.88012 24H1.00012Z" fill="#E5E5E5"/>
<mask id="mask0_1_3529" style="mask-type:alpha" maskUnits="userSpaceOnUse" x="12" y="12" width="25" height="24">
<rect x="12.0001" y="12" width="24" height="24" fill="#D9D9D9"/>
</mask>
<g mask="url(#mask0_1_3529)">
<path d="M21.7501 30V26.5H20.2501V22.9C20.2501 22.5167 20.5126 22.1875 21.0376 21.9125C21.5626 21.6375 22.2168 21.5 23.0001 21.5C23.7835 21.5 24.4376 21.6375 24.9626 21.9125C25.4876 22.1875 25.7501 22.5167 25.7501 22.9V26.5H24.2501V30H21.7501ZM23.0001 21C22.5668 21 22.2085 20.8583 21.9251 20.575C21.6418 20.2917 21.5001 19.9333 21.5001 19.5C21.5001 19.0667 21.6418 18.7083 21.9251 18.425C22.2085 18.1417 22.5668 18 23.0001 18C23.4335 18 23.7918 18.1417 24.0751 18.425C24.3585 18.7083 24.5001 19.0667 24.5001 19.5C24.5001 19.9333 24.3585 20.2917 24.0751 20.575C23.7918 20.8583 23.4335 21 23.0001 21ZM23.0001 33C20.5001 33 18.3751 32.125 16.6251 30.375C14.8751 28.625 14.0001 26.5 14.0001 24C14.0001 22.75 14.2376 21.5792 14.7126 20.4875C15.1876 19.3958 15.8293 18.4458 16.6376 17.6375C17.446 16.8292 18.396 16.1875 19.4876 15.7125C20.5793 15.2375 21.7501 15 23.0001 15C24.2501 15 25.421 15.2375 26.5126 15.7125C27.6043 16.1875 28.5543 16.8292 29.3626 17.6375C30.171 18.4458 30.8126 19.3958 31.2876 20.4875C31.7626 21.5792 32.0001 22.75 32.0001 24V24.2L33.8251 22.35L35.2501 23.75L31.0001 28L26.7501 23.75L28.1751 22.35L30.0001 24.175V24C30.0001 22.0667 29.3168 20.4167 27.9501 19.05C26.5835 17.6833 24.9335 17 23.0001 17C21.0668 17 19.4168 17.6833 18.0501 19.05C16.6835 20.4167 16.0001 22.0667 16.0001 24C16.0168 25.9333 16.7043 27.5833 18.0626 28.95C19.421 30.3167 21.0668 31 23.0001 31C23.9501 31 24.8418 30.8208 25.6751 30.4625C26.5085 30.1042 27.2418 29.6167 27.8751 29L29.3001 30.425C28.4835 31.225 27.5376 31.8542 26.4626 32.3125C25.3876 32.7708 24.2335 33 23.0001 33Z" fill="black"/>
</g>
</svg>
