<svg width="20" height="20" viewBox="0 0 20 20" fill="none" xmlns="http://www.w3.org/2000/svg">
<path d="M7.5 6.25H16.25C16.5814 6.24959 16.8991 6.11776 17.1334 5.88343C17.3678 5.6491 17.4996 5.33139 17.5 5V2.5C17.4996 2.16861 17.3678 1.8509 17.1334 1.61657C16.8991 1.38224 16.5814 1.25041 16.25 1.25H7.5C7.16861 1.25041 6.8509 1.38224 6.61657 1.61657C6.38224 1.8509 6.25041 2.16861 6.25 2.5V3.125H3.75V1.25H2.5V15.625C2.50041 15.9564 2.63224 16.2741 2.86657 16.5084C3.1009 16.7428 3.41861 16.8746 3.75 16.875H6.25V17.5C6.25041 17.8314 6.38224 18.1491 6.61657 18.3834C6.8509 18.6178 7.16861 18.7496 7.5 18.75H16.25C16.5814 18.7496 16.8991 18.6178 17.1334 18.3834C17.3678 18.1491 17.4996 17.8314 17.5 17.5V15C17.4996 14.6686 17.3678 14.3509 17.1334 14.1166C16.8991 13.8822 16.5814 13.7504 16.25 13.75H7.5C7.16861 13.7504 6.8509 13.8822 6.61657 14.1166C6.38224 14.3509 6.25041 14.6686 6.25 15V15.625H3.75V10.625H6.25V11.25C6.25041 11.5814 6.38224 11.8991 6.61657 12.1334C6.8509 12.3678 7.16861 12.4996 7.5 12.5H16.25C16.5814 12.4996 16.8991 12.3678 17.1334 12.1334C17.3678 11.8991 17.4996 11.5814 17.5 11.25V8.75C17.4996 8.41861 17.3678 8.1009 17.1334 7.86657C16.8991 7.63224 16.5814 7.50041 16.25 7.5H7.5C7.16861 7.50041 6.8509 7.63224 6.61657 7.86657C6.38224 8.1009 6.25041 8.41861 6.25 8.75V9.375H3.75V4.375H6.25V5C6.25041 5.33139 6.38224 5.6491 6.61657 5.88343C6.8509 6.11776 7.16861 6.24959 7.5 6.25ZM7.5 2.5H16.25L16.2507 5H7.5V2.5ZM7.5 15H16.25L16.2507 17.5H7.5V15ZM7.5 8.75H16.25L16.2507 11.25H7.5V8.75Z" fill="#0974FB"/>
</svg>
