<svg width="22" height="22" viewBox="0 0 22 22" fill="none" xmlns="http://www.w3.org/2000/svg">
<path d="M2 11.0002C2 8.6133 2.94821 6.32411 4.63604 4.63628C6.32387 2.94846 8.61305 2.00024 11 2.00024C13.3869 2.00024 15.6761 2.94846 17.364 4.63628C19.0518 6.32411 20 8.6133 20 11.0002V16.7265C20 17.6805 20 18.1552 19.8583 18.5366C19.7455 18.8388 19.5692 19.1133 19.3411 19.3413C19.113 19.5694 18.8386 19.7458 18.5364 19.8585C18.155 20.0002 17.6791 20.0002 16.7263 20.0002H11C8.61305 20.0002 6.32387 19.052 4.63604 17.3642C2.94821 15.6764 2 13.3872 2 11.0002Z" stroke="black" stroke-width="2.25"/>
</svg>
