<svg width="22" height="25" viewBox="0 0 22 25" fill="none" xmlns="http://www.w3.org/2000/svg">
<path d="M6.69565 11.4781C5.42722 11.4781 4.21075 10.9743 3.31384 10.0773C2.41692 9.18043 1.91304 7.96395 1.91304 6.69553V2.86944C1.91304 2.61576 2.01382 2.37246 2.1932 2.19308C2.37258 2.0137 2.61588 1.91292 2.86956 1.91292H3.82609C4.07977 1.91292 4.32307 1.81214 4.50245 1.63276C4.68183 1.45338 4.78261 1.21008 4.78261 0.956399C4.78261 0.702714 4.68183 0.459419 4.50245 0.280037C4.32307 0.100654 4.07977 -0.00012207 3.82609 -0.00012207H2.86956C2.10851 -0.00012207 1.37862 0.302206 0.840476 0.840354C0.302328 1.3785 0 2.10839 0 2.86944V6.69553C0.00122953 7.77614 0.264738 8.84032 0.767895 9.79665C1.27105 10.753 1.99882 11.5729 2.88869 12.186C3.74452 12.939 4.43847 13.858 4.92845 14.8873C5.41843 15.9166 5.69423 17.0347 5.73913 18.1738C5.73913 19.9496 6.44456 21.6526 7.70024 22.9083C8.95592 24.164 10.659 24.8694 12.4348 24.8694C14.2106 24.8694 15.9136 24.164 17.1693 22.9083C18.425 21.6526 19.1304 19.9496 19.1304 18.1738V17.0833C20.0321 16.8505 20.8179 16.2969 21.3406 15.5261C21.8632 14.7554 22.0868 13.8205 21.9695 12.8967C21.8522 11.9728 21.4019 11.1235 20.7032 10.5079C20.0044 9.89231 19.1051 9.55267 18.1739 9.55267C17.2427 9.55267 16.3434 9.89231 15.6446 10.5079C14.9459 11.1235 14.4957 11.9728 14.3783 12.8967C14.261 13.8205 14.4846 14.7554 15.0072 15.5261C15.5299 16.2969 16.3157 16.8505 17.2174 17.0833V18.1738C17.2174 19.4422 16.7135 20.6587 15.8166 21.5556C14.9197 22.4525 13.7032 22.9564 12.4348 22.9564C11.1664 22.9564 9.94988 22.4525 9.05296 21.5556C8.15605 20.6587 7.65217 19.4422 7.65217 18.1738C7.69949 17.0333 7.97828 15.9143 8.47159 14.885C8.96489 13.8556 9.66242 12.9373 10.5217 12.186C11.4081 11.5708 12.1321 10.7499 12.6319 9.79372C13.1316 8.83752 13.3922 7.77445 13.3913 6.69553V2.86944C13.3913 2.10839 13.089 1.3785 12.5508 0.840354C12.0127 0.302206 11.2828 -0.00012207 10.5217 -0.00012207H9.56521C9.31153 -0.00012207 9.06823 0.100654 8.88885 0.280037C8.70947 0.459419 8.60869 0.702714 8.60869 0.956399C8.60869 1.21008 8.70947 1.45338 8.88885 1.63276C9.06823 1.81214 9.31153 1.91292 9.56521 1.91292H10.5217C10.7754 1.91292 11.0187 2.0137 11.1981 2.19308C11.3775 2.37246 11.4783 2.61576 11.4783 2.86944V6.69553C11.4783 7.32359 11.3546 7.9455 11.1142 8.52575C10.8739 9.106 10.5216 9.63323 10.0775 10.0773C9.63336 10.5214 9.10613 10.8737 8.52587 11.1141C7.94562 11.3544 7.32371 11.4781 6.69565 11.4781ZM18.1739 15.3042C17.6665 15.3042 17.1799 15.1027 16.8212 14.7439C16.4624 14.3851 16.2609 13.8985 16.2609 13.3912C16.2609 12.8838 16.4624 12.3972 16.8212 12.0385C17.1799 11.6797 17.6665 11.4781 18.1739 11.4781C18.6813 11.4781 19.1679 11.6797 19.5266 12.0385C19.8854 12.3972 20.0869 12.8838 20.0869 13.3912C20.0869 13.8985 19.8854 14.3851 19.5266 14.7439C19.1679 15.1027 18.6813 15.3042 18.1739 15.3042Z" fill="black"/>
</svg>
