<svg width="27" height="27" viewBox="0 0 27 27" fill="none" xmlns="http://www.w3.org/2000/svg">
<path d="M13.6113 17.081C12.9254 17.081 12.2549 16.8775 11.6845 16.4965C11.1142 16.1154 10.6697 15.5737 10.4072 14.94C10.1447 14.3063 10.076 13.6089 10.2098 12.9362C10.3436 12.2634 10.6739 11.6455 11.159 11.1604C11.644 10.6754 12.262 10.3451 12.9347 10.2113C13.6075 10.0774 14.3048 10.1461 14.9385 10.4086C15.5723 10.6711 16.1139 11.1156 16.495 11.686C16.8761 12.2563 17.0795 12.9269 17.0795 13.6128C17.0784 14.5323 16.7126 15.4137 16.0624 16.0639C15.4123 16.714 14.5308 17.0798 13.6113 17.081ZM13.6113 11.8787C13.2684 11.8787 12.9331 11.9804 12.6479 12.171C12.3628 12.3615 12.1405 12.6323 12.0093 12.9492C11.878 13.266 11.8437 13.6147 11.9106 13.9511C11.9775 14.2875 12.1426 14.5965 12.3852 14.839C12.6277 15.0815 12.9367 15.2466 13.273 15.3136C13.6094 15.3805 13.9581 15.3461 14.2749 15.2149C14.5918 15.0836 14.8626 14.8614 15.0532 14.5762C15.2437 14.291 15.3454 13.9558 15.3454 13.6128C15.3454 13.1529 15.1627 12.7118 14.8375 12.3866C14.5123 12.0614 14.0712 11.8787 13.6113 11.8787ZM4.07389 17.081C3.38795 17.081 2.71742 16.8775 2.14708 16.4965C1.57675 16.1154 1.13222 15.5737 0.869728 14.94C0.607231 14.3063 0.53855 13.6089 0.672369 12.9362C0.806189 12.2634 1.1365 11.6455 1.62153 11.1604C2.10656 10.6754 2.72453 10.3451 3.39729 10.2113C4.07005 10.0774 4.76738 10.1461 5.4011 10.4086C6.03482 10.6711 6.57648 11.1156 6.95756 11.686C7.33865 12.2563 7.54206 12.9269 7.54206 13.6128C7.54091 14.5323 7.17515 15.4137 6.52499 16.0639C5.87483 16.714 4.99335 17.0798 4.07389 17.081ZM4.07389 11.8787C3.73092 11.8787 3.39566 11.9804 3.11049 12.171C2.82532 12.3615 2.60306 12.6323 2.47181 12.9492C2.34056 13.266 2.30622 13.6147 2.37313 13.9511C2.44004 14.2875 2.6052 14.5965 2.84771 14.839C3.09023 15.0815 3.39921 15.2466 3.73559 15.3136C4.07197 15.3805 4.42063 15.3461 4.7375 15.2149C5.05436 15.0836 5.32519 14.8614 5.51573 14.5762C5.70627 14.291 5.80797 13.9558 5.80797 13.6128C5.80797 13.1529 5.62528 12.7118 5.30007 12.3866C4.97487 12.0614 4.5338 11.8787 4.07389 11.8787ZM8.4091 26.6184C7.72316 26.6184 7.05262 26.415 6.48229 26.0339C5.91195 25.6528 5.46743 25.1112 5.20493 24.4774C4.94243 23.8437 4.87375 23.1464 5.00757 22.4736C5.14139 21.8009 5.4717 21.1829 5.95673 20.6979C6.44177 20.2128 7.05973 19.8825 7.73249 19.7487C8.40525 19.6149 9.10258 19.6836 9.73631 19.9461C10.37 20.2086 10.9117 20.6531 11.2928 21.2234C11.6739 21.7938 11.8773 22.4643 11.8773 23.1502C11.8761 24.0697 11.5103 24.9512 10.8602 25.6013C10.21 26.2515 9.32856 26.6173 8.4091 26.6184ZM8.4091 21.4162C8.06613 21.4162 7.73086 21.5179 7.44569 21.7084C7.16052 21.8989 6.93826 22.1698 6.80701 22.4866C6.67577 22.8035 6.64142 23.1522 6.70833 23.4885C6.77524 23.8249 6.9404 24.1339 7.18292 24.3764C7.42543 24.6189 7.73441 24.7841 8.07079 24.851C8.40717 24.9179 8.75584 24.8836 9.0727 24.7523C9.38956 24.6211 9.66039 24.3988 9.85093 24.1136C10.0415 23.8285 10.1432 23.4932 10.1432 23.1502C10.1432 22.6903 9.96048 22.2493 9.63528 21.9241C9.31007 21.5989 8.869 21.4162 8.4091 21.4162ZM18.8136 26.6184C18.1276 26.6184 17.4571 26.415 16.8868 26.0339C16.3164 25.6528 15.8719 25.1112 15.6094 24.4774C15.3469 23.8437 15.2782 23.1464 15.4121 22.4736C15.5459 21.8009 15.8762 21.1829 16.3612 20.6979C16.8463 20.2128 17.4642 19.8825 18.137 19.7487C18.8097 19.6149 19.5071 19.6836 20.1408 19.9461C20.7745 20.2086 21.3162 20.6531 21.6973 21.2234C22.0783 21.7938 22.2817 22.4643 22.2817 23.1502C22.2806 24.0697 21.9148 24.9512 21.2647 25.6013C20.6145 26.2515 19.733 26.6173 18.8136 26.6184ZM18.8136 21.4162C18.4706 21.4162 18.1353 21.5179 17.8502 21.7084C17.565 21.8989 17.3428 22.1698 17.2115 22.4866C17.0803 22.8035 17.0459 23.1522 17.1128 23.4885C17.1797 23.8249 17.3449 24.1339 17.5874 24.3764C17.8299 24.6189 18.1389 24.7841 18.4753 24.851C18.8117 24.9179 19.1603 24.8836 19.4772 24.7523C19.7941 24.6211 20.0649 24.3988 20.2554 24.1136C20.446 23.8285 20.5477 23.4932 20.5477 23.1502C20.5477 22.6903 20.365 22.2493 20.0398 21.9241C19.7146 21.5989 19.2735 21.4162 18.8136 21.4162ZM23.1488 17.081C22.4629 17.081 21.7923 16.8775 21.222 16.4965C20.6516 16.1154 20.2071 15.5737 19.9446 14.94C19.6821 14.3063 19.6134 13.6089 19.7473 12.9362C19.8811 12.2634 20.2114 11.6455 20.6964 11.1604C21.1815 10.6754 21.7994 10.3451 22.4722 10.2113C23.1449 10.0774 23.8423 10.1461 24.476 10.4086C25.1097 10.6711 25.6514 11.1156 26.0325 11.686C26.4135 12.2563 26.617 12.9269 26.617 13.6128C26.6158 14.5323 26.25 15.4137 25.5999 16.0639C24.9497 16.714 24.0682 17.0798 23.1488 17.081ZM23.1488 11.8787C22.8058 11.8787 22.4706 11.9804 22.1854 12.171C21.9002 12.3615 21.678 12.6323 21.5467 12.9492C21.4155 13.266 21.3811 13.6147 21.448 13.9511C21.5149 14.2875 21.6801 14.5965 21.9226 14.839C22.1651 15.0815 22.4741 15.2466 22.8105 15.3136C23.1469 15.3805 23.4955 15.3461 23.8124 15.2149C24.1293 15.0836 24.4001 14.8614 24.5906 14.5762C24.7812 14.291 24.8829 13.9558 24.8829 13.6128C24.8829 13.1529 24.7002 12.7118 24.375 12.3866C24.0498 12.0614 23.6087 11.8787 23.1488 11.8787ZM18.8136 7.5435C18.1276 7.5435 17.4571 7.3401 16.8868 6.95901C16.3164 6.57793 15.8719 6.03627 15.6094 5.40255C15.3469 4.76883 15.2782 4.0715 15.4121 3.39874C15.5459 2.72598 15.8762 2.10801 16.3612 1.62298C16.8463 1.13795 17.4642 0.807639 18.137 0.673819C18.8097 0.539999 19.5071 0.60868 20.1408 0.871177C20.7745 1.13367 21.3162 1.5782 21.6973 2.14853C22.0783 2.71887 22.2817 3.3894 22.2817 4.07534C22.2806 4.9948 21.9148 5.87628 21.2647 6.52644C20.6145 7.17659 19.733 7.54236 18.8136 7.5435ZM18.8136 2.34126C18.4706 2.34126 18.1353 2.44296 17.8502 2.63351C17.565 2.82405 17.3428 3.09488 17.2115 3.41174C17.0803 3.7286 17.0459 4.07727 17.1128 4.41364C17.1797 4.75002 17.3449 5.05901 17.5874 5.30152C17.8299 5.54404 18.1389 5.70919 18.4753 5.7761C18.8117 5.84301 19.1603 5.80867 19.4772 5.67742C19.7941 5.54618 20.0649 5.32391 20.2554 5.03875C20.446 4.75358 20.5477 4.41831 20.5477 4.07534C20.5477 3.61544 20.365 3.17436 20.0398 2.84916C19.7146 2.52396 19.2735 2.34126 18.8136 2.34126ZM8.4091 7.5435C7.72316 7.5435 7.05262 7.3401 6.48229 6.95901C5.91195 6.57793 5.46743 6.03627 5.20493 5.40255C4.94243 4.76883 4.87375 4.0715 5.00757 3.39874C5.14139 2.72598 5.4717 2.10801 5.95673 1.62298C6.44177 1.13795 7.05973 0.807639 7.73249 0.673819C8.40525 0.539999 9.10258 0.60868 9.73631 0.871177C10.37 1.13367 10.9117 1.5782 11.2928 2.14853C11.6739 2.71887 11.8773 3.3894 11.8773 4.07534C11.8761 4.9948 11.5103 5.87628 10.8602 6.52644C10.21 7.17659 9.32856 7.54236 8.4091 7.5435ZM8.4091 2.34126C8.06613 2.34126 7.73086 2.44296 7.44569 2.63351C7.16052 2.82405 6.93826 3.09488 6.80701 3.41174C6.67577 3.7286 6.64142 4.07727 6.70833 4.41364C6.77524 4.75002 6.9404 5.05901 7.18292 5.30152C7.42543 5.54404 7.73441 5.70919 8.07079 5.7761C8.40717 5.84301 8.75584 5.80867 9.0727 5.67742C9.38956 5.54618 9.66039 5.32391 9.85093 5.03875C10.0415 4.75358 10.1432 4.41831 10.1432 4.07534C10.1432 3.61544 9.96048 3.17436 9.63528 2.84916C9.31007 2.52396 8.869 2.34126 8.4091 2.34126Z" fill="black"/>
</svg>
