<svg width="25" height="18" viewBox="0 0 25 18" fill="none" xmlns="http://www.w3.org/2000/svg">
<path d="M14.0728 0.716117C14.1202 0.520272 14.2296 0.344943 14.3845 0.216172C14.5395 0.0874 14.7319 0.0120552 14.9331 0.00132834C15.1343 -0.0093985 15.3337 0.045065 15.5015 0.156629C15.6693 0.268193 15.7966 0.430906 15.8645 0.620601L18.426 7.80247C19.3381 7.80123 19.9168 7.63267 20.5299 7.17319C20.7098 6.94959 20.9269 6.75867 21.1717 6.60882L21.226 6.55389V6.57574C21.6056 6.35678 22.0362 6.24159 22.4744 6.24174C22.9127 6.24189 23.3432 6.35737 23.7227 6.57658C24.1022 6.79579 24.4173 7.11101 24.6364 7.49057C24.8554 7.87013 24.9708 8.30066 24.9708 8.73891C24.9708 9.17717 24.8554 9.6077 24.6364 9.98726C24.4173 10.3668 24.1022 10.682 23.7227 10.9013C23.3432 11.1205 22.9127 11.2359 22.4744 11.2361C22.0362 11.2362 21.6056 11.121 21.226 10.9021V10.9239L21.1704 10.869C20.9394 10.7273 20.7334 10.5487 20.5599 10.3421C19.9918 9.93007 19.458 9.7896 18.6676 9.7665H17.7974C17.6042 9.7664 17.4159 9.7066 17.2581 9.59528C17.1003 9.48397 16.9807 9.32659 16.9159 9.1447L15.1572 4.21279L12.1369 16.7617C12.0894 16.9582 11.9797 17.1341 11.824 17.263C11.6683 17.392 11.4751 17.4671 11.2732 17.4772C11.0713 17.4872 10.8715 17.4316 10.7038 17.3188C10.5361 17.2059 10.4094 17.0418 10.3427 16.851L6.81604 6.75116L5.86586 9.17217C5.79712 9.34733 5.67721 9.49771 5.52175 9.60373C5.3663 9.70974 5.18251 9.76646 4.99435 9.7665H0V7.89362H4.3557L5.99572 3.7146C6.06566 3.53669 6.18838 3.38445 6.34739 3.27834C6.50639 3.17222 6.69407 3.11731 6.8852 3.12098C7.07632 3.12465 7.26175 3.18673 7.41657 3.29887C7.57138 3.41101 7.68816 3.56785 7.75123 3.74831L11.0612 13.2282L14.0728 0.716117Z" fill="black"/>
</svg>
