<svg width="26" height="25" viewBox="0 0 26 25" fill="none" xmlns="http://www.w3.org/2000/svg">
<path d="M13.0919 5.13261L13.1034 5.12002M17.6699 7.4216L17.6814 7.40901M8.51397 7.4216L8.52541 7.40901M19.9589 11.9996L19.9704 11.987M6.22498 11.9996L6.23643 11.987M18.8144 16.5775L18.8259 16.565M7.36948 16.5775L7.38092 16.565M13.0919 16.5661L14.2364 9.69914M9.08622 20.0007H3.93599C2.44698 18.0209 1.64344 15.6099 1.64701 13.1326C1.64701 6.81158 6.77091 1.68768 13.0919 1.68768C19.413 1.68768 24.5369 6.81158 24.5369 13.1326C24.5369 15.71 23.6854 18.0883 22.2479 20.0007L17.0977 19.9996" stroke="white" stroke-width="1.71674" stroke-linecap="round" stroke-linejoin="round"/>
<path d="M13.0904 23.4339C14.0011 23.4339 14.8744 23.0721 15.5183 22.4282C16.1622 21.7843 16.5239 20.911 16.5239 20.0004C16.5239 19.0898 16.1622 18.2164 15.5183 17.5725C14.8744 16.9286 14.0011 16.5669 13.0904 16.5669C12.1798 16.5669 11.3065 16.9286 10.6626 17.5725C10.0187 18.2164 9.65696 19.0898 9.65696 20.0004C9.65696 20.911 10.0187 21.7843 10.6626 22.4282C11.3065 23.0721 12.1798 23.4339 13.0904 23.4339Z" stroke="white" stroke-width="1.71674" stroke-linecap="round" stroke-linejoin="round"/>
</svg>
