<svg width="40" height="26" viewBox="0 0 40 26" fill="none" xmlns="http://www.w3.org/2000/svg">
<g clip-path="url(#clip0_1_3310)">
<rect opacity="0.2" width="19" height="1.7" rx="0.85" fill="#0974FB"/>
<rect opacity="0.2" y="2.70001" width="19" height="1.7" rx="0.85" fill="#0974FB"/>
<rect opacity="0.2" y="5.39999" width="19" height="1.7" rx="0.85" fill="#0974FB"/>
<rect opacity="0.2" y="8.10001" width="19" height="1.7" rx="0.85" fill="#0974FB"/>
<rect opacity="0.2" y="10.8" width="19" height="1.7" rx="0.85" fill="#0974FB"/>
<rect opacity="0.2" y="13.5" width="19" height="1.7" rx="0.85" fill="#0974FB"/>
<rect y="16.2" width="19" height="1.7" rx="0.85" fill="#0974FB"/>
<rect y="18.9" width="19" height="1.7" rx="0.85" fill="#0974FB"/>
<rect y="21.6" width="19" height="1.7" rx="0.85" fill="#0974FB"/>
<rect y="24.3" width="19" height="1.7" rx="0.85" fill="#0974FB"/>
</g>
<g clip-path="url(#clip1_1_3310)">
<rect opacity="0.2" x="21" width="19" height="1.7" rx="0.85" fill="#746C7A"/>
<rect opacity="0.2" x="21" y="2.70001" width="19" height="1.7" rx="0.85" fill="#746C7A"/>
<rect opacity="0.2" x="21" y="5.39999" width="19" height="1.7" rx="0.85" fill="#746C7A"/>
<rect opacity="0.2" x="21" y="8.10001" width="19" height="1.7" rx="0.85" fill="#746C7A"/>
<rect opacity="0.2" x="21" y="10.8" width="19" height="1.7" rx="0.85" fill="#746C7A"/>
<rect x="21" y="13.5" width="19" height="1.7" rx="0.85" fill="#746C7A"/>
<rect x="21" y="16.2" width="19" height="1.7" rx="0.85" fill="#746C7A"/>
<rect x="21" y="18.9" width="19" height="1.7" rx="0.85" fill="#746C7A"/>
<rect x="21" y="21.6" width="19" height="1.7" rx="0.85" fill="#746C7A"/>
<rect x="21" y="24.3" width="19" height="1.7" rx="0.85" fill="#746C7A"/>
</g>
<defs>
<clipPath id="clip0_1_3310">
<rect width="19" height="26" fill="white"/>
</clipPath>
<clipPath id="clip1_1_3310">
<rect width="19" height="26" fill="white" transform="translate(21)"/>
</clipPath>
</defs>
</svg>
