<svg width="50" height="50" viewBox="0 0 50 50" fill="none" xmlns="http://www.w3.org/2000/svg">
<g filter="url(#filter0_dd_1_3157)">
<rect x="4" y="2.99994" width="42" height="42.0001" rx="21" fill="#0974FB"/>
<path d="M23.9397 20.1336C23.6233 20.2186 23.3222 20.341 23.0417 20.4958C22.9694 20.4361 22.9115 20.3571 22.877 20.2628L21.2482 15.8149C21.1444 15.5314 21.2915 15.218 21.5767 15.1149C21.6387 15.0924 21.7022 15.0818 21.7644 15.0818C21.9889 15.0818 22.1997 15.2195 22.2808 15.4412L23.9096 19.8891C23.9392 19.9701 23.9484 20.0534 23.9397 20.1336Z" fill="#34C347"/>
<path d="M21.0806 12.1625C20.9768 11.8791 20.6615 11.7329 20.3763 11.8361C20.0912 11.9393 19.9441 12.2527 20.0479 12.5361L20.7035 14.3264C20.8073 14.6098 21.1226 14.7559 21.4077 14.6528C21.6929 14.5496 21.8399 14.2362 21.7361 13.9528L21.0806 12.1625Z" fill="#34C347"/>
<path d="M21.1035 22.9745C21.0224 23.2797 20.9766 23.5991 20.9709 23.9284C20.8824 23.961 20.7843 23.9714 20.6847 23.9539L15.9949 23.132C15.6961 23.0796 15.4966 22.7963 15.5492 22.4992C15.5962 22.2344 15.8281 22.0479 16.0897 22.0479C16.1214 22.0479 16.1535 22.0506 16.1858 22.0562L20.8756 22.8782C20.9609 22.8931 21.038 22.9269 21.1035 22.9745Z" fill="#34C347"/>
<path d="M12.732 21.4503C12.4331 21.3979 12.1481 21.5963 12.0954 21.8933C12.0427 22.1904 12.2423 22.4736 12.5411 22.526L14.4287 22.8568C14.7276 22.9092 15.0126 22.7109 15.0653 22.4138C15.118 22.1168 14.9184 21.8335 14.6195 21.7811L12.732 21.4503Z" fill="#34C347"/>
<path d="M22.9265 27.4325C22.9106 27.5248 22.8707 27.614 22.8058 27.691L19.7448 31.3169C19.5498 31.548 19.2032 31.5782 18.9707 31.3842C18.8412 31.2762 18.7744 31.1214 18.7744 30.9656C18.7744 30.8417 18.8165 30.7172 18.903 30.6148L21.964 26.9889C22.02 26.9226 22.0883 26.8729 22.1629 26.8403C22.3919 27.0667 22.6483 27.2658 22.9265 27.4325Z" fill="#34C347"/>
<path d="M16.6436 33.2874C16.4485 33.5185 16.4789 33.8629 16.7113 34.0568C16.9438 34.2507 17.2904 34.2206 17.4855 33.9895L18.7175 32.5301C18.9126 32.299 18.8822 31.9545 18.6498 31.7606C18.4173 31.5668 18.0707 31.5969 17.8756 31.828L16.6436 33.2874Z" fill="#34C347"/>
<path d="M28.4246 32.8856C28.3626 32.9081 28.2992 32.9186 28.2369 32.9186C28.0124 32.9186 27.8016 32.781 27.7205 32.5593L26.0917 28.1114C26.0621 28.0304 26.0529 27.9471 26.0616 27.8669C26.3781 27.7819 26.6792 27.6595 26.9596 27.5047C27.032 27.5644 27.0899 27.6434 27.1244 27.7377L28.7531 32.1856C28.8569 32.4691 28.7099 32.7825 28.4246 32.8856Z" fill="#34C347"/>
<path d="M28.9223 35.8376C29.0261 36.1211 29.3414 36.2672 29.6265 36.164C29.9117 36.0609 30.0587 35.7475 29.955 35.464L29.2994 33.6738C29.1956 33.3903 28.8803 33.2442 28.5951 33.3473C28.31 33.4505 28.1629 33.7639 28.2667 34.0474L28.9223 35.8376Z" fill="#34C347"/>
<path d="M34.4459 25.501C34.399 25.7658 34.167 25.9523 33.9054 25.9523C33.8738 25.9523 33.8417 25.9496 33.8094 25.944L29.1196 25.122C29.0343 25.1071 28.9572 25.0734 28.8917 25.0257C28.9728 24.7205 29.0186 24.4011 29.0243 24.0719C29.1128 24.0392 29.2109 24.0288 29.3105 24.0463L34.0002 24.8682C34.2991 24.9206 34.4986 25.2039 34.4459 25.501Z" fill="#34C347"/>
<path d="M37.2683 26.5498C37.5671 26.6022 37.8521 26.4038 37.9048 26.1068C37.9575 25.8097 37.758 25.5264 37.4591 25.4741L35.5715 25.1432C35.2727 25.0909 34.9877 25.2892 34.935 25.5863C34.8823 25.8833 35.0818 26.1666 35.3807 26.219L37.2683 26.5498Z" fill="#34C347"/>
<path d="M31.2237 17.0338C31.2237 17.1578 31.1816 17.2822 31.0951 17.3846L28.0341 21.0105C27.9781 21.0768 27.9098 21.1265 27.8352 21.1592C27.6062 20.9327 27.3498 20.7336 27.0716 20.5669C27.0875 20.4747 27.1274 20.3854 27.1923 20.3085L30.2533 16.6825C30.4483 16.4514 30.7949 16.4212 31.0274 16.6152C31.1569 16.7232 31.2237 16.878 31.2237 17.0338Z" fill="#34C347"/>
<path d="M33.3539 14.7121C33.549 14.4811 33.5187 14.1366 33.2862 13.9427C33.0537 13.7488 32.7072 13.7789 32.5121 14.01L31.2801 15.4694C31.085 15.7005 31.1153 16.045 31.3478 16.2389C31.5803 16.4328 31.9268 16.4026 32.1219 16.1715L33.3539 14.7121Z" fill="#34C347"/>
<path d="M22.687 20.7257C22.4221 20.9115 22.1807 21.1284 21.9684 21.3709C21.8796 21.3393 21.7977 21.2848 21.7327 21.2077L20.8466 20.1581C20.6514 19.9271 20.6818 19.5826 20.9143 19.3886C21.0173 19.3028 21.1425 19.2609 21.2672 19.2609C21.4239 19.2609 21.5797 19.3272 21.6883 19.4559L22.5745 20.5056C22.6303 20.5717 22.6676 20.6473 22.687 20.7257Z" fill="#77D4FD"/>
<path d="M17.2531 14.2069C17.0581 13.9758 16.7115 13.9457 16.479 14.1396C16.2466 14.3335 16.2162 14.678 16.4113 14.909L19.8419 18.9728C20.037 19.2039 20.3836 19.234 20.616 19.0401C20.8485 18.8463 20.8788 18.5018 20.6838 18.2707L17.2531 14.2069Z" fill="#77D4FD"/>
<path d="M21.1929 25.3027C21.1212 25.3631 21.0329 25.4059 20.9337 25.4233L19.5761 25.6612C19.2772 25.7136 18.9923 25.5153 18.9396 25.2182C18.9339 25.1861 18.9312 25.1541 18.9312 25.1226C18.9312 24.8625 19.1187 24.6322 19.3853 24.5855L20.7428 24.3476C20.8283 24.3326 20.9129 24.3381 20.991 24.3608C21.0202 24.6877 21.0891 25.0033 21.1929 25.3027Z" fill="#77D4FD"/>
<path d="M17.852 24.8539L12.596 25.7751C12.2971 25.8275 12.0976 26.1107 12.1503 26.4078C12.203 26.7048 12.488 26.9032 12.7868 26.8508L18.0429 25.9296C18.3417 25.8773 18.5413 25.594 18.4886 25.2969C18.4359 24.9999 18.1509 24.8015 17.852 24.8539Z" fill="#77D4FD"/>
<path d="M24.215 28.2155L23.7436 29.5031C23.6398 29.7866 23.3245 29.9327 23.0393 29.8296C22.8161 29.7488 22.6776 29.5393 22.6776 29.3163C22.6776 29.2543 22.6883 29.1912 22.7109 29.1295L23.1823 27.842C23.2119 27.7611 23.2587 27.6913 23.3172 27.6354C23.6076 27.7693 23.9167 27.8697 24.2395 27.9318C24.2562 28.0237 24.2495 28.1214 24.215 28.2155Z" fill="#77D4FD"/>
<path d="M22.1764 30.5832L20.351 35.5681C20.2472 35.8516 20.3943 36.165 20.6794 36.2682C20.9646 36.3713 21.2799 36.2252 21.3837 35.9417L23.2091 30.9568C23.3129 30.6733 23.1659 30.3599 22.8807 30.2567C22.5955 30.1536 22.2802 30.2997 22.1764 30.5832Z" fill="#77D4FD"/>
<path d="M29.0947 28.6112C28.9917 28.697 28.8665 28.7389 28.7418 28.7389C28.585 28.7389 28.4293 28.6726 28.3206 28.5439L27.4345 27.4942C27.3787 27.428 27.3413 27.3525 27.322 27.274C27.5869 27.0883 27.8283 26.8714 28.0406 26.6288C28.1294 26.6604 28.2113 26.715 28.2763 26.7921L29.1624 27.8417C29.3576 28.0727 29.3272 28.4172 29.0947 28.6112Z" fill="#77D4FD"/>
<path d="M30.164 29.0266C29.969 28.7956 29.6224 28.7654 29.3899 28.9593C29.1574 29.1532 29.1271 29.4977 29.3222 29.7287L32.7528 33.7925C32.9479 34.0236 33.2945 34.0537 33.5269 33.8599C33.7594 33.666 33.7897 33.3215 33.5947 33.0904L30.164 29.0266Z" fill="#77D4FD"/>
<path d="M31.0755 22.8768C31.0755 23.137 30.888 23.3673 30.6214 23.414L29.2638 23.6519C29.1783 23.6669 29.0938 23.6614 29.0156 23.6387C28.9864 23.3118 28.9175 22.9962 28.8137 22.6968C28.8854 22.6364 28.9737 22.5936 29.073 22.5761L30.4305 22.3383C30.7294 22.2859 31.0143 22.4842 31.0671 22.7813C31.0728 22.8134 31.0755 22.8454 31.0755 22.8768Z" fill="#77D4FD"/>
<path d="M37.2232 21.1485L31.9672 22.0696C31.6684 22.122 31.4688 22.4053 31.5215 22.7024C31.5742 22.9994 31.8592 23.1978 32.158 23.1454L37.4141 22.2242C37.7129 22.1718 37.9125 21.8885 37.8598 21.5915C37.8071 21.2944 37.5221 21.0961 37.2232 21.1485Z" fill="#77D4FD"/>
<path d="M27.3359 18.6836C27.3359 18.7457 27.3252 18.8087 27.3026 18.8704L26.8311 20.1579C26.8015 20.2389 26.7548 20.3086 26.6962 20.3645C26.4058 20.2306 26.0967 20.1302 25.7739 20.0682C25.7571 19.9762 25.764 19.8786 25.7985 19.7844L26.2699 18.4969C26.3737 18.2134 26.689 18.0672 26.9742 18.1703C27.1974 18.2511 27.3359 18.4605 27.3359 18.6836Z" fill="#77D4FD"/>
<path d="M28.6251 12.0583L26.7997 17.0432C26.696 17.3267 26.843 17.6401 27.1282 17.7433C27.4133 17.8464 27.7286 17.7003 27.8324 17.4168L29.6578 12.4319C29.7616 12.1484 29.6146 11.835 29.3294 11.7318C29.0443 11.6287 28.7289 11.7748 28.6251 12.0583Z" fill="#77D4FD"/>
<path d="M25.3999 16.1199V19.7683C25.3999 19.8548 25.3797 19.9365 25.3438 20.0091C25.232 19.9997 25.1188 19.9949 25.0045 19.9949C24.7905 19.9949 24.5806 20.0115 24.3756 20.0435C24.3282 19.9627 24.3009 19.8687 24.3009 19.7683V16.1199C24.3009 15.8183 24.547 15.5737 24.8504 15.5737C25.0022 15.5737 25.1395 15.6349 25.239 15.7338C25.3383 15.8326 25.3999 15.9691 25.3999 16.1199Z" fill="white"/>
<path d="M25.3999 11.5461C25.3999 11.2445 25.1538 10.9999 24.8504 10.9999C24.5469 10.9999 24.3009 11.2445 24.3009 11.5461V14.5448C24.3009 14.8465 24.5469 15.091 24.8504 15.091C25.1538 15.091 25.3999 14.8465 25.3999 14.5448V11.5461Z" fill="white"/>
<path d="M21.6862 21.7125C21.5022 21.9749 21.3489 22.2602 21.2317 22.5632C21.1378 22.5636 21.0424 22.5401 20.9552 22.49L17.7764 20.6658C17.5137 20.515 17.4236 20.1809 17.5753 19.9198C17.7271 19.6585 18.0632 19.569 18.3259 19.7198L21.5046 21.544C21.5798 21.5872 21.6408 21.6453 21.6862 21.7125Z" fill="white"/>
<path d="M14.3448 17.433C14.082 17.2822 13.7459 17.3717 13.5942 17.6329C13.4425 17.8941 13.5325 18.2282 13.7953 18.379L16.4081 19.8783C16.6709 20.0292 17.0069 19.9397 17.1587 19.6784C17.3104 19.4172 17.2204 19.0832 16.9576 18.9324L14.3448 17.433Z" fill="white"/>
<path d="M21.865 26.5193C21.8183 26.6009 21.7499 26.6714 21.6623 26.7217L18.4836 28.5458C18.2207 28.6968 17.8847 28.6072 17.733 28.346C17.683 28.2599 17.6592 28.166 17.6592 28.0733C17.6592 27.8846 17.7578 27.701 17.9341 27.5999L21.1129 25.7757C21.1879 25.7326 21.269 25.7092 21.3499 25.7038C21.4885 25.9968 21.6619 26.2704 21.865 26.5193Z" fill="white"/>
<path d="M16.5657 28.387L13.9529 29.8864C13.6901 30.0372 13.6001 30.3712 13.7518 30.6325C13.9035 30.8937 14.2396 30.9832 14.5024 30.8324L17.1151 29.333C17.378 29.1822 17.468 28.8482 17.3163 28.5869C17.1645 28.3257 16.8285 28.2362 16.5657 28.387Z" fill="white"/>
<path d="M25.7081 28.2317V31.8802C25.7081 32.1818 25.4621 32.4263 25.1587 32.4263C25.0068 32.4263 24.8696 32.3652 24.7701 32.2663C24.6707 32.1675 24.6092 32.031 24.6092 31.8802V28.2317C24.6092 28.1453 24.6294 28.0636 24.6653 27.991C24.7771 28.0004 24.8903 28.0052 25.0045 28.0052C25.2185 28.0052 25.4285 27.9886 25.6335 27.9566C25.6809 28.0374 25.7081 28.1314 25.7081 28.2317Z" fill="white"/>
<path d="M25.7081 33.4552C25.7081 33.1535 25.4621 32.909 25.1587 32.909C24.8552 32.909 24.6092 33.1535 24.6092 33.4552V36.4539C24.6092 36.7555 24.8552 37.0001 25.1587 37.0001C25.4621 37.0001 25.7081 36.7555 25.7081 36.4539V33.4552Z" fill="white"/>
<path d="M32.4144 28.0807C32.3126 28.2559 32.1279 28.3539 31.9379 28.3539C31.8448 28.3539 31.7503 28.3302 31.6638 28.2806L28.485 26.4564C28.4098 26.4133 28.3486 26.3551 28.3035 26.2879C28.4875 26.0255 28.6408 25.7402 28.758 25.4372C28.852 25.4368 28.9472 25.4603 29.0344 25.5104L32.2133 27.3346C32.476 27.4854 32.5661 27.8195 32.4144 28.0807Z" fill="white"/>
<path d="M33.5878 28.1222C33.325 27.9714 32.989 28.0609 32.8372 28.3221C32.6855 28.5833 32.7755 28.9174 33.0384 29.0682L35.6511 30.5676C35.9139 30.7184 36.25 30.6289 36.4017 30.3676C36.5535 30.1064 36.4634 29.7724 36.2006 29.6216L33.5878 28.1222Z" fill="white"/>
<path d="M32.3465 19.9271C32.3465 20.1157 32.2479 20.2993 32.0716 20.4004L28.8929 22.2246C28.8178 22.2678 28.7367 22.2911 28.6558 22.2965C28.5172 22.0035 28.3438 21.7299 28.1407 21.481C28.1874 21.3995 28.2558 21.3289 28.3434 21.2786L31.5221 19.4545C31.785 19.3036 32.121 19.3931 32.2727 19.6544C32.3227 19.7404 32.3465 19.8343 32.3465 19.9271Z" fill="white"/>
<path d="M35.5093 17.1673L32.8965 18.6667C32.6337 18.8175 32.5437 19.1515 32.6954 19.4127C32.8471 19.674 33.1832 19.7635 33.446 19.6127L36.0587 18.1133C36.3216 17.9625 36.4116 17.6284 36.2599 17.3672C36.1081 17.106 35.7721 17.0165 35.5093 17.1673Z" fill="white"/>
</g>
<defs>
<filter id="filter0_dd_1_3157" x="0" y="-6.10352e-05" width="50" height="50.0001" filterUnits="userSpaceOnUse" color-interpolation-filters="sRGB">
<feFlood flood-opacity="0" result="BackgroundImageFix"/>
<feColorMatrix in="SourceAlpha" type="matrix" values="0 0 0 0 0 0 0 0 0 0 0 0 0 0 0 0 0 0 127 0" result="hardAlpha"/>
<feOffset/>
<feGaussianBlur stdDeviation="1.5"/>
<feComposite in2="hardAlpha" operator="out"/>
<feColorMatrix type="matrix" values="0 0 0 0 0.458824 0 0 0 0 0.741176 0 0 0 0 0.913725 0 0 0 0.6 0"/>
<feBlend mode="multiply" in2="BackgroundImageFix" result="effect1_dropShadow_1_3157"/>
<feColorMatrix in="SourceAlpha" type="matrix" values="0 0 0 0 0 0 0 0 0 0 0 0 0 0 0 0 0 0 127 0" result="hardAlpha"/>
<feOffset dy="1"/>
<feGaussianBlur stdDeviation="2"/>
<feComposite in2="hardAlpha" operator="out"/>
<feColorMatrix type="matrix" values="0 0 0 0 0.458824 0 0 0 0 0.741176 0 0 0 0 0.913725 0 0 0 0.3 0"/>
<feBlend mode="multiply" in2="effect1_dropShadow_1_3157" result="effect2_dropShadow_1_3157"/>
<feBlend mode="normal" in="SourceGraphic" in2="effect2_dropShadow_1_3157" result="shape"/>
</filter>
</defs>
</svg>
