<svg width="42" height="43" viewBox="0 0 42 43" fill="none" xmlns="http://www.w3.org/2000/svg">
<path d="M21 1.34731C21 0.795028 21.448 0.344827 21.9996 0.371099C26.9795 0.608262 31.7254 2.61131 35.3755 6.03897C39.0256 9.46664 41.3227 14.0774 41.8721 19.0325C41.9329 19.5815 41.5117 20.0568 40.9605 20.0915L40.4416 20.1242C39.8904 20.1588 39.4182 19.7395 39.3538 19.191C38.847 14.8758 36.8332 10.8648 33.6504 7.87597C30.4677 4.88716 26.3381 3.12923 21.9996 2.89435C21.4481 2.86449 21 2.4196 21 1.86731V1.34731Z" fill="#0974FB"/>
<path d="M41 21.3473C41.5523 21.3473 42.0025 21.7953 41.9762 22.347C41.7391 27.3268 39.736 32.0727 36.3083 35.7228C32.8807 39.3729 28.2699 41.67 23.3148 42.2194C22.7659 42.2802 22.2905 41.859 22.2558 41.3078L22.2232 40.7889C22.1885 40.2377 22.6078 39.7655 23.1563 39.7011C27.4715 39.1943 31.4825 37.1805 34.4713 33.9977C37.4602 30.815 39.2181 26.6854 39.453 22.3469C39.4828 21.7955 39.9277 21.3473 40.48 21.3473H41Z" fill="#0974FB"/>
<path d="M21 41.3473C21 41.8996 20.552 42.3498 20.0004 42.3235C15.0205 42.0864 10.2746 40.0833 6.62451 36.6557C2.97442 33.228 0.677326 28.6172 0.127946 23.6621C0.0670865 23.1132 0.48827 22.6378 1.03947 22.6031L1.55844 22.5705C2.10963 22.5358 2.58179 22.9551 2.64621 23.5036C3.15304 27.8188 5.1668 31.8298 8.34957 34.8187C11.5323 37.8075 15.6619 39.5654 20.0004 39.8003C20.5519 39.8301 21 40.275 21 40.8273V41.3473Z" fill="#0974FB"/>
<path d="M1 21.3473C0.447715 21.3473 -0.00248624 20.8993 0.0237864 20.3477C0.26095 15.3678 2.264 10.6219 5.69166 6.97182C9.11932 3.32173 13.7301 1.02464 18.6852 0.475259C19.2341 0.4144 19.7095 0.835583 19.7442 1.38678L19.7768 1.90575C19.8115 2.45695 19.3922 2.9291 18.8437 2.99353C14.5285 3.50036 10.5175 5.51412 7.52866 8.69688C4.53984 11.8796 2.78191 16.0092 2.54703 20.3477C2.51718 20.8992 2.07229 21.3473 1.52 21.3473H1Z" fill="#E5E5E5"/>
<path d="M15.9997 15.3333H14.333V13.6666H27.6663V15.3333H25.9997V17C25.9997 18.3462 25.3195 19.4289 24.4631 20.3139C23.8773 20.9191 23.1647 21.4766 22.4421 22C23.1647 22.5233 23.8773 23.0808 24.4631 23.686C25.3195 24.571 25.9997 25.6538 25.9997 27V28.6666H27.6663V30.3333H14.333V28.6666H15.9997V27C15.9997 25.6538 16.6798 24.571 17.5363 23.686C18.122 23.0808 18.8347 22.5233 19.5573 22C18.8347 21.4766 18.122 20.9191 17.5363 20.3139C16.6798 19.4289 15.9997 18.3462 15.9997 17V15.3333ZM17.6663 15.3333V17C17.6663 17.7371 18.0279 18.4252 18.7339 19.1548C19.3397 19.7808 20.1287 20.3665 20.9997 20.9817C21.8707 20.3665 22.6597 19.7808 23.2654 19.1548C23.9715 18.4252 24.333 17.7371 24.333 17V15.3333H17.6663ZM20.9997 23.0182C20.1287 23.6335 19.3397 24.2191 18.7339 24.8451C18.0279 25.5747 17.6663 26.2628 17.6663 27V28.6666H24.333V27C24.333 26.2628 23.9715 25.5747 23.2654 24.8451C22.6597 24.2191 21.8707 23.6335 20.9997 23.0182Z" fill="black"/>
</svg>
