<svg width="40" height="41" viewBox="0 0 40 41" fill="none" xmlns="http://www.w3.org/2000/svg">
<path d="M20.0001 32.7756C19.5158 32.7756 19.1233 32.9799 19.1233 33.232V36.7033C19.1233 36.9554 19.5158 37.1597 20.0001 37.1597C20.4841 37.1597 20.8769 36.9554 20.8769 36.7033V33.232C20.8769 32.9799 20.4844 32.7756 20.0001 32.7756Z" fill="#0974FB"/>
<path fill-rule="evenodd" clip-rule="evenodd" d="M15.5188 7.42672C15.5188 4.96566 17.5209 2.96356 19.982 2.96356C22.4429 2.96356 24.4451 4.96566 24.4451 7.42672C24.4451 9.88778 22.4426 11.8899 19.982 11.8899C17.5209 11.8899 15.5188 9.88778 15.5188 7.42672ZM20.0004 10.4775C21.6853 10.4775 23.0512 9.11162 23.0512 7.42671C23.0512 5.74181 21.6853 4.37593 20.0004 4.37593C18.3155 4.37593 16.9496 5.74181 16.9496 7.42671C16.9496 9.11162 18.3155 10.4775 20.0004 10.4775Z" fill="#0974FB"/>
<path fill-rule="evenodd" clip-rule="evenodd" d="M20.0005 10.5821C21.7432 10.5821 23.1559 9.16937 23.1559 7.42671C23.1559 5.68406 21.7432 4.27136 20.0005 4.27136C18.2579 4.27136 16.8452 5.68406 16.8452 7.42671C16.8452 9.16937 18.2579 10.5821 20.0005 10.5821ZM20.0005 10.2986C21.5866 10.2986 22.8725 9.01284 22.8725 7.42671C22.8725 5.84059 21.5866 4.55478 20.0005 4.55478C18.4144 4.55478 17.1286 5.84059 17.1286 7.42671C17.1286 9.01284 18.4144 10.2986 20.0005 10.2986Z" fill="#0974FB"/>
<path fill-rule="evenodd" clip-rule="evenodd" d="M8.73183 21.2461C8.88405 21.7193 8.62387 22.2263 8.15069 22.3785C7.01444 22.7441 6.11957 23.1412 5.46203 23.537C4.78796 23.9427 4.46291 24.287 4.33108 24.5002C4.27305 24.594 4.26495 24.6403 4.26379 24.648C4.26375 24.6482 4.26371 24.6485 4.26366 24.6488C4.26307 24.6522 4.26202 24.6583 4.26873 24.6802C4.29022 24.7504 4.40846 25.0081 4.90213 25.3915C5.91116 26.1752 7.84465 26.9853 10.6351 27.5851C13.3752 28.1741 16.6368 28.4957 19.9996 28.4957C23.3624 28.4957 26.6239 28.1741 29.364 27.5851C32.1545 26.9853 34.088 26.1752 35.097 25.3915C35.5907 25.0081 35.7089 24.7504 35.7304 24.6802C35.7377 24.6565 35.7359 24.6513 35.7354 24.648C35.7342 24.6403 35.7261 24.594 35.6681 24.5002C35.5362 24.287 35.2112 23.9427 34.5371 23.537C33.8796 23.1412 32.9847 22.7441 31.8485 22.3785C31.3753 22.2263 31.1151 21.7193 31.2673 21.2461C31.4195 20.773 31.9265 20.5128 32.3997 20.665C33.6259 21.0595 34.6566 21.508 35.4653 21.9948C36.274 22.4815 36.8607 23.0064 37.1991 23.5536C37.5383 24.1023 37.6192 24.6595 37.4516 25.2071C37.2835 25.756 36.8652 26.2973 36.2011 26.8131C34.8738 27.844 32.626 28.7251 29.7423 29.345C26.8584 29.9649 23.468 30.2957 19.9996 30.2957C16.5312 30.2957 13.1407 29.9649 10.2569 29.345C7.37312 28.7251 5.12537 27.844 3.79802 26.8131C3.13393 26.2973 2.71562 25.756 2.54758 25.2071C2.37991 24.6595 2.46083 24.1023 2.8001 23.5536C3.13842 23.0064 3.72512 22.4815 4.53382 21.9948C5.34252 21.508 6.3732 21.0595 7.59945 20.665C8.07262 20.5128 8.57961 20.773 8.73183 21.2461Z" fill="#0974FB"/>
<path d="M24.6653 36.9909C24.6281 37.5785 24.1411 38.0368 23.552 38.0368H16.4856C15.8979 38.0368 15.4114 37.58 15.3723 36.9938L15.011 31.5485C15.5793 31.6028 16.1562 31.6487 16.7395 31.6843L16.9319 36.2829H23.0696L23.2786 31.6823C23.8622 31.6466 24.4394 31.6011 25.0081 31.5466L24.6653 36.9909ZM22.2131 12.5222C25.2894 12.5222 27.7923 15.0251 27.7922 18.1013V25.1306C27.7922 25.7468 27.2923 26.2458 26.676 26.2458H25.343L25.1086 29.9509C24.5324 30.0092 23.9456 30.056 23.3508 30.0944L23.552 25.694C23.5894 25.1063 24.0765 24.6483 24.6653 24.6481H26.2219V18.1013C26.2219 16.2559 24.059 14.1611 22.2131 14.1608H17.7874C15.9418 14.1608 13.7981 16.2558 13.7981 18.1013V24.6559L15.178 24.6481C15.7656 24.6482 16.4544 25.186 16.4934 25.7722L16.6731 30.0954C16.0751 30.057 15.4849 30.0114 14.9055 29.9528L14.6604 26.2458H13.3245C12.7082 26.2458 12.2083 25.7468 12.2083 25.1306V18.1013C12.2083 15.0251 14.7111 12.5222 17.7874 12.5222H22.2131Z" fill="#0974FB"/>
<path d="M18.9927 24.4457H21.0094V21.9468H23.508V19.9301H21.0094V17.4312H18.9927V19.9301H16.4934V21.9468H18.9927V24.4457Z" fill="#0974FB"/>
</svg>
